<mxfile host="65bd71144e" pages="2">
    <diagram id="cYdxOe1z96Krd6D8h9Y3" name="Page-1">
        <mxGraphModel dx="1657" dy="693" grid="1" gridSize="10" guides="1" tooltips="1" connect="1" arrows="1" fold="1" page="1" pageScale="1" pageWidth="850" pageHeight="1100" math="0" shadow="0">
            <root>
                <mxCell id="0"/>
                <mxCell id="1" parent="0"/>
                <mxCell id="XXJnfLqn3RMoecripVSo-1" value="" style="shape=table;startSize=0;container=1;collapsible=0;childLayout=tableLayout;strokeColor=#330000;" parent="1" vertex="1">
                    <mxGeometry x="-600" y="120" width="440" height="630" as="geometry"/>
                </mxCell>
                <mxCell id="XXJnfLqn3RMoecripVSo-333" style="shape=partialRectangle;collapsible=0;dropTarget=0;pointerEvents=0;fillColor=none;top=0;left=0;bottom=0;right=0;points=[[0,0.5],[1,0.5]];portConstraint=eastwest;strokeColor=#FFD966;" parent="XXJnfLqn3RMoecripVSo-1" vertex="1">
                    <mxGeometry width="440" height="30" as="geometry"/>
                </mxCell>
                <mxCell id="XXJnfLqn3RMoecripVSo-334" value="no" style="shape=partialRectangle;html=1;whiteSpace=wrap;connectable=0;overflow=hidden;fillColor=#0050ef;top=0;left=0;bottom=0;right=0;pointerEvents=1;strokeColor=#001DBC;fontColor=#ffffff;fontStyle=1" parent="XXJnfLqn3RMoecripVSo-333" vertex="1">
                    <mxGeometry width="38" height="30" as="geometry">
                        <mxRectangle width="30" height="30" as="alternateBounds"/>
                    </mxGeometry>
                </mxCell>
                <mxCell id="XXJnfLqn3RMoecripVSo-335" value="field" style="shape=partialRectangle;html=1;whiteSpace=wrap;connectable=0;overflow=hidden;fillColor=#0050ef;top=0;left=0;bottom=0;right=0;pointerEvents=1;strokeColor=#001DBC;align=left;fontColor=#ffffff;fontStyle=1" parent="XXJnfLqn3RMoecripVSo-333" vertex="1">
                    <mxGeometry x="38" width="182" height="30" as="geometry">
                        <mxRectangle width="180" height="30" as="alternateBounds"/>
                    </mxGeometry>
                </mxCell>
                <mxCell id="XXJnfLqn3RMoecripVSo-336" value="type" style="shape=partialRectangle;html=1;whiteSpace=wrap;connectable=0;overflow=hidden;fillColor=#0050ef;top=0;left=0;bottom=0;right=0;pointerEvents=1;strokeColor=#001DBC;fontColor=#ffffff;fontStyle=1" parent="XXJnfLqn3RMoecripVSo-333" vertex="1">
                    <mxGeometry x="220" width="63" height="30" as="geometry">
                        <mxRectangle width="50" height="30" as="alternateBounds"/>
                    </mxGeometry>
                </mxCell>
                <mxCell id="XXJnfLqn3RMoecripVSo-337" value="key" style="shape=partialRectangle;html=1;whiteSpace=wrap;connectable=0;overflow=hidden;fillColor=#0050ef;top=0;left=0;bottom=0;right=0;pointerEvents=1;strokeColor=#001DBC;fontColor=#ffffff;fontStyle=1" parent="XXJnfLqn3RMoecripVSo-333" vertex="1">
                    <mxGeometry x="283" width="42" height="30" as="geometry">
                        <mxRectangle width="30" height="30" as="alternateBounds"/>
                    </mxGeometry>
                </mxCell>
                <mxCell id="XXJnfLqn3RMoecripVSo-338" value="description" style="shape=partialRectangle;html=1;whiteSpace=wrap;connectable=0;overflow=hidden;fillColor=#0050ef;top=0;left=0;bottom=0;right=0;pointerEvents=1;strokeColor=#001DBC;fontColor=#ffffff;fontStyle=1" parent="XXJnfLqn3RMoecripVSo-333" vertex="1">
                    <mxGeometry x="325" width="115" height="30" as="geometry">
                        <mxRectangle width="60" height="30" as="alternateBounds"/>
                    </mxGeometry>
                </mxCell>
                <mxCell id="XXJnfLqn3RMoecripVSo-20" value="" style="shape=partialRectangle;collapsible=0;dropTarget=0;pointerEvents=0;fillColor=none;top=0;left=0;bottom=0;right=0;points=[[0,0.5],[1,0.5]];portConstraint=eastwest;strokeColor=#FFD966;" parent="XXJnfLqn3RMoecripVSo-1" vertex="1">
                    <mxGeometry y="30" width="440" height="30" as="geometry"/>
                </mxCell>
                <mxCell id="XXJnfLqn3RMoecripVSo-21" value="1" style="shape=partialRectangle;html=1;whiteSpace=wrap;connectable=0;overflow=hidden;fillColor=none;top=0;left=0;bottom=0;right=0;pointerEvents=1;strokeColor=#FFD966;" parent="XXJnfLqn3RMoecripVSo-20" vertex="1">
                    <mxGeometry width="38" height="30" as="geometry">
                        <mxRectangle width="30" height="30" as="alternateBounds"/>
                    </mxGeometry>
                </mxCell>
                <mxCell id="XXJnfLqn3RMoecripVSo-22" value="wallet_address" style="shape=partialRectangle;html=1;whiteSpace=wrap;connectable=0;overflow=hidden;fillColor=none;top=0;left=0;bottom=0;right=0;pointerEvents=1;strokeColor=#FFD966;align=left;" parent="XXJnfLqn3RMoecripVSo-20" vertex="1">
                    <mxGeometry x="38" width="182" height="30" as="geometry">
                        <mxRectangle width="180" height="30" as="alternateBounds"/>
                    </mxGeometry>
                </mxCell>
                <mxCell id="XXJnfLqn3RMoecripVSo-23" value="" style="shape=partialRectangle;html=1;whiteSpace=wrap;connectable=0;overflow=hidden;fillColor=none;top=0;left=0;bottom=0;right=0;pointerEvents=1;strokeColor=#FFD966;" parent="XXJnfLqn3RMoecripVSo-20" vertex="1">
                    <mxGeometry x="220" width="63" height="30" as="geometry">
                        <mxRectangle width="50" height="30" as="alternateBounds"/>
                    </mxGeometry>
                </mxCell>
                <mxCell id="XXJnfLqn3RMoecripVSo-24" value="" style="shape=partialRectangle;html=1;whiteSpace=wrap;connectable=0;overflow=hidden;fillColor=none;top=0;left=0;bottom=0;right=0;pointerEvents=1;strokeColor=#FFD966;" parent="XXJnfLqn3RMoecripVSo-20" vertex="1">
                    <mxGeometry x="283" width="42" height="30" as="geometry">
                        <mxRectangle width="30" height="30" as="alternateBounds"/>
                    </mxGeometry>
                </mxCell>
                <mxCell id="XXJnfLqn3RMoecripVSo-25" value="" style="shape=partialRectangle;html=1;whiteSpace=wrap;connectable=0;overflow=hidden;fillColor=none;top=0;left=0;bottom=0;right=0;pointerEvents=1;strokeColor=#FFD966;" parent="XXJnfLqn3RMoecripVSo-20" vertex="1">
                    <mxGeometry x="325" width="115" height="30" as="geometry">
                        <mxRectangle width="60" height="30" as="alternateBounds"/>
                    </mxGeometry>
                </mxCell>
                <mxCell id="XXJnfLqn3RMoecripVSo-26" value="" style="shape=partialRectangle;collapsible=0;dropTarget=0;pointerEvents=0;fillColor=none;top=0;left=0;bottom=0;right=0;points=[[0,0.5],[1,0.5]];portConstraint=eastwest;strokeColor=#FFD966;" parent="XXJnfLqn3RMoecripVSo-1" vertex="1">
                    <mxGeometry y="60" width="440" height="30" as="geometry"/>
                </mxCell>
                <mxCell id="XXJnfLqn3RMoecripVSo-27" value="2" style="shape=partialRectangle;html=1;whiteSpace=wrap;connectable=0;overflow=hidden;fillColor=none;top=0;left=0;bottom=0;right=0;pointerEvents=1;strokeColor=#FFD966;" parent="XXJnfLqn3RMoecripVSo-26" vertex="1">
                    <mxGeometry width="38" height="30" as="geometry">
                        <mxRectangle width="30" height="30" as="alternateBounds"/>
                    </mxGeometry>
                </mxCell>
                <mxCell id="XXJnfLqn3RMoecripVSo-28" value="profile_username" style="shape=partialRectangle;html=1;whiteSpace=wrap;connectable=0;overflow=hidden;fillColor=none;top=0;left=0;bottom=0;right=0;pointerEvents=1;strokeColor=#FFD966;align=left;" parent="XXJnfLqn3RMoecripVSo-26" vertex="1">
                    <mxGeometry x="38" width="182" height="30" as="geometry">
                        <mxRectangle width="180" height="30" as="alternateBounds"/>
                    </mxGeometry>
                </mxCell>
                <mxCell id="XXJnfLqn3RMoecripVSo-29" value="" style="shape=partialRectangle;html=1;whiteSpace=wrap;connectable=0;overflow=hidden;fillColor=none;top=0;left=0;bottom=0;right=0;pointerEvents=1;strokeColor=#FFD966;" parent="XXJnfLqn3RMoecripVSo-26" vertex="1">
                    <mxGeometry x="220" width="63" height="30" as="geometry">
                        <mxRectangle width="50" height="30" as="alternateBounds"/>
                    </mxGeometry>
                </mxCell>
                <mxCell id="XXJnfLqn3RMoecripVSo-30" value="" style="shape=partialRectangle;html=1;whiteSpace=wrap;connectable=0;overflow=hidden;fillColor=none;top=0;left=0;bottom=0;right=0;pointerEvents=1;strokeColor=#FFD966;" parent="XXJnfLqn3RMoecripVSo-26" vertex="1">
                    <mxGeometry x="283" width="42" height="30" as="geometry">
                        <mxRectangle width="30" height="30" as="alternateBounds"/>
                    </mxGeometry>
                </mxCell>
                <mxCell id="XXJnfLqn3RMoecripVSo-31" value="" style="shape=partialRectangle;html=1;whiteSpace=wrap;connectable=0;overflow=hidden;fillColor=none;top=0;left=0;bottom=0;right=0;pointerEvents=1;strokeColor=#FFD966;" parent="XXJnfLqn3RMoecripVSo-26" vertex="1">
                    <mxGeometry x="325" width="115" height="30" as="geometry">
                        <mxRectangle width="60" height="30" as="alternateBounds"/>
                    </mxGeometry>
                </mxCell>
                <mxCell id="XXJnfLqn3RMoecripVSo-32" value="" style="shape=partialRectangle;collapsible=0;dropTarget=0;pointerEvents=0;fillColor=none;top=0;left=0;bottom=0;right=0;points=[[0,0.5],[1,0.5]];portConstraint=eastwest;strokeColor=#FFD966;" parent="XXJnfLqn3RMoecripVSo-1" vertex="1">
                    <mxGeometry y="90" width="440" height="30" as="geometry"/>
                </mxCell>
                <mxCell id="XXJnfLqn3RMoecripVSo-33" value="3" style="shape=partialRectangle;html=1;whiteSpace=wrap;connectable=0;overflow=hidden;fillColor=none;top=0;left=0;bottom=0;right=0;pointerEvents=1;strokeColor=#FFD966;" parent="XXJnfLqn3RMoecripVSo-32" vertex="1">
                    <mxGeometry width="38" height="30" as="geometry">
                        <mxRectangle width="30" height="30" as="alternateBounds"/>
                    </mxGeometry>
                </mxCell>
                <mxCell id="XXJnfLqn3RMoecripVSo-34" value="profile_bio" style="shape=partialRectangle;html=1;whiteSpace=wrap;connectable=0;overflow=hidden;fillColor=none;top=0;left=0;bottom=0;right=0;pointerEvents=1;strokeColor=#FFD966;align=left;" parent="XXJnfLqn3RMoecripVSo-32" vertex="1">
                    <mxGeometry x="38" width="182" height="30" as="geometry">
                        <mxRectangle width="180" height="30" as="alternateBounds"/>
                    </mxGeometry>
                </mxCell>
                <mxCell id="XXJnfLqn3RMoecripVSo-35" value="" style="shape=partialRectangle;html=1;whiteSpace=wrap;connectable=0;overflow=hidden;fillColor=none;top=0;left=0;bottom=0;right=0;pointerEvents=1;strokeColor=#FFD966;" parent="XXJnfLqn3RMoecripVSo-32" vertex="1">
                    <mxGeometry x="220" width="63" height="30" as="geometry">
                        <mxRectangle width="50" height="30" as="alternateBounds"/>
                    </mxGeometry>
                </mxCell>
                <mxCell id="XXJnfLqn3RMoecripVSo-36" value="" style="shape=partialRectangle;html=1;whiteSpace=wrap;connectable=0;overflow=hidden;fillColor=none;top=0;left=0;bottom=0;right=0;pointerEvents=1;strokeColor=#FFD966;" parent="XXJnfLqn3RMoecripVSo-32" vertex="1">
                    <mxGeometry x="283" width="42" height="30" as="geometry">
                        <mxRectangle width="30" height="30" as="alternateBounds"/>
                    </mxGeometry>
                </mxCell>
                <mxCell id="XXJnfLqn3RMoecripVSo-37" value="" style="shape=partialRectangle;html=1;whiteSpace=wrap;connectable=0;overflow=hidden;fillColor=none;top=0;left=0;bottom=0;right=0;pointerEvents=1;strokeColor=#FFD966;" parent="XXJnfLqn3RMoecripVSo-32" vertex="1">
                    <mxGeometry x="325" width="115" height="30" as="geometry">
                        <mxRectangle width="60" height="30" as="alternateBounds"/>
                    </mxGeometry>
                </mxCell>
                <mxCell id="XXJnfLqn3RMoecripVSo-38" value="" style="shape=partialRectangle;collapsible=0;dropTarget=0;pointerEvents=0;fillColor=none;top=0;left=0;bottom=0;right=0;points=[[0,0.5],[1,0.5]];portConstraint=eastwest;strokeColor=#FFD966;" parent="XXJnfLqn3RMoecripVSo-1" vertex="1">
                    <mxGeometry y="120" width="440" height="30" as="geometry"/>
                </mxCell>
                <mxCell id="XXJnfLqn3RMoecripVSo-39" value="4" style="shape=partialRectangle;html=1;whiteSpace=wrap;connectable=0;overflow=hidden;fillColor=none;top=0;left=0;bottom=0;right=0;pointerEvents=1;strokeColor=#FFD966;" parent="XXJnfLqn3RMoecripVSo-38" vertex="1">
                    <mxGeometry width="38" height="30" as="geometry">
                        <mxRectangle width="30" height="30" as="alternateBounds"/>
                    </mxGeometry>
                </mxCell>
                <mxCell id="XXJnfLqn3RMoecripVSo-40" value="profile_email_address" style="shape=partialRectangle;html=1;whiteSpace=wrap;connectable=0;overflow=hidden;fillColor=none;top=0;left=0;bottom=0;right=0;pointerEvents=1;strokeColor=#FFD966;align=left;" parent="XXJnfLqn3RMoecripVSo-38" vertex="1">
                    <mxGeometry x="38" width="182" height="30" as="geometry">
                        <mxRectangle width="180" height="30" as="alternateBounds"/>
                    </mxGeometry>
                </mxCell>
                <mxCell id="XXJnfLqn3RMoecripVSo-41" value="" style="shape=partialRectangle;html=1;whiteSpace=wrap;connectable=0;overflow=hidden;fillColor=none;top=0;left=0;bottom=0;right=0;pointerEvents=1;strokeColor=#FFD966;" parent="XXJnfLqn3RMoecripVSo-38" vertex="1">
                    <mxGeometry x="220" width="63" height="30" as="geometry">
                        <mxRectangle width="50" height="30" as="alternateBounds"/>
                    </mxGeometry>
                </mxCell>
                <mxCell id="XXJnfLqn3RMoecripVSo-42" value="" style="shape=partialRectangle;html=1;whiteSpace=wrap;connectable=0;overflow=hidden;fillColor=none;top=0;left=0;bottom=0;right=0;pointerEvents=1;strokeColor=#FFD966;" parent="XXJnfLqn3RMoecripVSo-38" vertex="1">
                    <mxGeometry x="283" width="42" height="30" as="geometry">
                        <mxRectangle width="30" height="30" as="alternateBounds"/>
                    </mxGeometry>
                </mxCell>
                <mxCell id="XXJnfLqn3RMoecripVSo-43" value="" style="shape=partialRectangle;html=1;whiteSpace=wrap;connectable=0;overflow=hidden;fillColor=none;top=0;left=0;bottom=0;right=0;pointerEvents=1;strokeColor=#FFD966;" parent="XXJnfLqn3RMoecripVSo-38" vertex="1">
                    <mxGeometry x="325" width="115" height="30" as="geometry">
                        <mxRectangle width="60" height="30" as="alternateBounds"/>
                    </mxGeometry>
                </mxCell>
                <mxCell id="XXJnfLqn3RMoecripVSo-44" style="shape=partialRectangle;collapsible=0;dropTarget=0;pointerEvents=0;fillColor=none;top=0;left=0;bottom=0;right=0;points=[[0,0.5],[1,0.5]];portConstraint=eastwest;strokeColor=#FFD966;" parent="XXJnfLqn3RMoecripVSo-1" vertex="1">
                    <mxGeometry y="150" width="440" height="30" as="geometry"/>
                </mxCell>
                <mxCell id="XXJnfLqn3RMoecripVSo-45" value="5" style="shape=partialRectangle;html=1;whiteSpace=wrap;connectable=0;overflow=hidden;fillColor=none;top=0;left=0;bottom=0;right=0;pointerEvents=1;strokeColor=#FFD966;" parent="XXJnfLqn3RMoecripVSo-44" vertex="1">
                    <mxGeometry width="38" height="30" as="geometry">
                        <mxRectangle width="30" height="30" as="alternateBounds"/>
                    </mxGeometry>
                </mxCell>
                <mxCell id="XXJnfLqn3RMoecripVSo-46" value="profile_facebook" style="shape=partialRectangle;html=1;whiteSpace=wrap;connectable=0;overflow=hidden;fillColor=none;top=0;left=0;bottom=0;right=0;pointerEvents=1;strokeColor=#FFD966;align=left;" parent="XXJnfLqn3RMoecripVSo-44" vertex="1">
                    <mxGeometry x="38" width="182" height="30" as="geometry">
                        <mxRectangle width="180" height="30" as="alternateBounds"/>
                    </mxGeometry>
                </mxCell>
                <mxCell id="XXJnfLqn3RMoecripVSo-47" style="shape=partialRectangle;html=1;whiteSpace=wrap;connectable=0;overflow=hidden;fillColor=none;top=0;left=0;bottom=0;right=0;pointerEvents=1;strokeColor=#FFD966;" parent="XXJnfLqn3RMoecripVSo-44" vertex="1">
                    <mxGeometry x="220" width="63" height="30" as="geometry">
                        <mxRectangle width="50" height="30" as="alternateBounds"/>
                    </mxGeometry>
                </mxCell>
                <mxCell id="XXJnfLqn3RMoecripVSo-48" style="shape=partialRectangle;html=1;whiteSpace=wrap;connectable=0;overflow=hidden;fillColor=none;top=0;left=0;bottom=0;right=0;pointerEvents=1;strokeColor=#FFD966;" parent="XXJnfLqn3RMoecripVSo-44" vertex="1">
                    <mxGeometry x="283" width="42" height="30" as="geometry">
                        <mxRectangle width="30" height="30" as="alternateBounds"/>
                    </mxGeometry>
                </mxCell>
                <mxCell id="XXJnfLqn3RMoecripVSo-49" style="shape=partialRectangle;html=1;whiteSpace=wrap;connectable=0;overflow=hidden;fillColor=none;top=0;left=0;bottom=0;right=0;pointerEvents=1;strokeColor=#FFD966;" parent="XXJnfLqn3RMoecripVSo-44" vertex="1">
                    <mxGeometry x="325" width="115" height="30" as="geometry">
                        <mxRectangle width="60" height="30" as="alternateBounds"/>
                    </mxGeometry>
                </mxCell>
                <mxCell id="XXJnfLqn3RMoecripVSo-50" style="shape=partialRectangle;collapsible=0;dropTarget=0;pointerEvents=0;fillColor=none;top=0;left=0;bottom=0;right=0;points=[[0,0.5],[1,0.5]];portConstraint=eastwest;strokeColor=#FFD966;" parent="XXJnfLqn3RMoecripVSo-1" vertex="1">
                    <mxGeometry y="180" width="440" height="30" as="geometry"/>
                </mxCell>
                <mxCell id="XXJnfLqn3RMoecripVSo-51" value="6" style="shape=partialRectangle;html=1;whiteSpace=wrap;connectable=0;overflow=hidden;fillColor=none;top=0;left=0;bottom=0;right=0;pointerEvents=1;strokeColor=#FFD966;" parent="XXJnfLqn3RMoecripVSo-50" vertex="1">
                    <mxGeometry width="38" height="30" as="geometry">
                        <mxRectangle width="30" height="30" as="alternateBounds"/>
                    </mxGeometry>
                </mxCell>
                <mxCell id="XXJnfLqn3RMoecripVSo-52" value="profile_twitter" style="shape=partialRectangle;html=1;whiteSpace=wrap;connectable=0;overflow=hidden;fillColor=none;top=0;left=0;bottom=0;right=0;pointerEvents=1;strokeColor=#FFD966;align=left;" parent="XXJnfLqn3RMoecripVSo-50" vertex="1">
                    <mxGeometry x="38" width="182" height="30" as="geometry">
                        <mxRectangle width="180" height="30" as="alternateBounds"/>
                    </mxGeometry>
                </mxCell>
                <mxCell id="XXJnfLqn3RMoecripVSo-53" style="shape=partialRectangle;html=1;whiteSpace=wrap;connectable=0;overflow=hidden;fillColor=none;top=0;left=0;bottom=0;right=0;pointerEvents=1;strokeColor=#FFD966;" parent="XXJnfLqn3RMoecripVSo-50" vertex="1">
                    <mxGeometry x="220" width="63" height="30" as="geometry">
                        <mxRectangle width="50" height="30" as="alternateBounds"/>
                    </mxGeometry>
                </mxCell>
                <mxCell id="XXJnfLqn3RMoecripVSo-54" style="shape=partialRectangle;html=1;whiteSpace=wrap;connectable=0;overflow=hidden;fillColor=none;top=0;left=0;bottom=0;right=0;pointerEvents=1;strokeColor=#FFD966;" parent="XXJnfLqn3RMoecripVSo-50" vertex="1">
                    <mxGeometry x="283" width="42" height="30" as="geometry">
                        <mxRectangle width="30" height="30" as="alternateBounds"/>
                    </mxGeometry>
                </mxCell>
                <mxCell id="XXJnfLqn3RMoecripVSo-55" style="shape=partialRectangle;html=1;whiteSpace=wrap;connectable=0;overflow=hidden;fillColor=none;top=0;left=0;bottom=0;right=0;pointerEvents=1;strokeColor=#FFD966;" parent="XXJnfLqn3RMoecripVSo-50" vertex="1">
                    <mxGeometry x="325" width="115" height="30" as="geometry">
                        <mxRectangle width="60" height="30" as="alternateBounds"/>
                    </mxGeometry>
                </mxCell>
                <mxCell id="XXJnfLqn3RMoecripVSo-56" style="shape=partialRectangle;collapsible=0;dropTarget=0;pointerEvents=0;fillColor=none;top=0;left=0;bottom=0;right=0;points=[[0,0.5],[1,0.5]];portConstraint=eastwest;strokeColor=#FFD966;" parent="XXJnfLqn3RMoecripVSo-1" vertex="1">
                    <mxGeometry y="210" width="440" height="30" as="geometry"/>
                </mxCell>
                <mxCell id="XXJnfLqn3RMoecripVSo-57" value="7" style="shape=partialRectangle;html=1;whiteSpace=wrap;connectable=0;overflow=hidden;fillColor=none;top=0;left=0;bottom=0;right=0;pointerEvents=1;strokeColor=#FFD966;" parent="XXJnfLqn3RMoecripVSo-56" vertex="1">
                    <mxGeometry width="38" height="30" as="geometry">
                        <mxRectangle width="30" height="30" as="alternateBounds"/>
                    </mxGeometry>
                </mxCell>
                <mxCell id="XXJnfLqn3RMoecripVSo-58" value="profile_ig" style="shape=partialRectangle;html=1;whiteSpace=wrap;connectable=0;overflow=hidden;fillColor=none;top=0;left=0;bottom=0;right=0;pointerEvents=1;strokeColor=#FFD966;align=left;" parent="XXJnfLqn3RMoecripVSo-56" vertex="1">
                    <mxGeometry x="38" width="182" height="30" as="geometry">
                        <mxRectangle width="180" height="30" as="alternateBounds"/>
                    </mxGeometry>
                </mxCell>
                <mxCell id="XXJnfLqn3RMoecripVSo-59" style="shape=partialRectangle;html=1;whiteSpace=wrap;connectable=0;overflow=hidden;fillColor=none;top=0;left=0;bottom=0;right=0;pointerEvents=1;strokeColor=#FFD966;" parent="XXJnfLqn3RMoecripVSo-56" vertex="1">
                    <mxGeometry x="220" width="63" height="30" as="geometry">
                        <mxRectangle width="50" height="30" as="alternateBounds"/>
                    </mxGeometry>
                </mxCell>
                <mxCell id="XXJnfLqn3RMoecripVSo-60" style="shape=partialRectangle;html=1;whiteSpace=wrap;connectable=0;overflow=hidden;fillColor=none;top=0;left=0;bottom=0;right=0;pointerEvents=1;strokeColor=#FFD966;" parent="XXJnfLqn3RMoecripVSo-56" vertex="1">
                    <mxGeometry x="283" width="42" height="30" as="geometry">
                        <mxRectangle width="30" height="30" as="alternateBounds"/>
                    </mxGeometry>
                </mxCell>
                <mxCell id="XXJnfLqn3RMoecripVSo-61" style="shape=partialRectangle;html=1;whiteSpace=wrap;connectable=0;overflow=hidden;fillColor=none;top=0;left=0;bottom=0;right=0;pointerEvents=1;strokeColor=#FFD966;" parent="XXJnfLqn3RMoecripVSo-56" vertex="1">
                    <mxGeometry x="325" width="115" height="30" as="geometry">
                        <mxRectangle width="60" height="30" as="alternateBounds"/>
                    </mxGeometry>
                </mxCell>
                <mxCell id="XXJnfLqn3RMoecripVSo-62" style="shape=partialRectangle;collapsible=0;dropTarget=0;pointerEvents=0;fillColor=none;top=0;left=0;bottom=0;right=0;points=[[0,0.5],[1,0.5]];portConstraint=eastwest;strokeColor=#FFD966;" parent="XXJnfLqn3RMoecripVSo-1" vertex="1">
                    <mxGeometry y="240" width="440" height="30" as="geometry"/>
                </mxCell>
                <mxCell id="XXJnfLqn3RMoecripVSo-63" value="8" style="shape=partialRectangle;html=1;whiteSpace=wrap;connectable=0;overflow=hidden;fillColor=none;top=0;left=0;bottom=0;right=0;pointerEvents=1;strokeColor=#FFD966;" parent="XXJnfLqn3RMoecripVSo-62" vertex="1">
                    <mxGeometry width="38" height="30" as="geometry">
                        <mxRectangle width="30" height="30" as="alternateBounds"/>
                    </mxGeometry>
                </mxCell>
                <mxCell id="XXJnfLqn3RMoecripVSo-64" value="profile_site" style="shape=partialRectangle;html=1;whiteSpace=wrap;connectable=0;overflow=hidden;fillColor=none;top=0;left=0;bottom=0;right=0;pointerEvents=1;strokeColor=#FFD966;align=left;" parent="XXJnfLqn3RMoecripVSo-62" vertex="1">
                    <mxGeometry x="38" width="182" height="30" as="geometry">
                        <mxRectangle width="180" height="30" as="alternateBounds"/>
                    </mxGeometry>
                </mxCell>
                <mxCell id="XXJnfLqn3RMoecripVSo-65" style="shape=partialRectangle;html=1;whiteSpace=wrap;connectable=0;overflow=hidden;fillColor=none;top=0;left=0;bottom=0;right=0;pointerEvents=1;strokeColor=#FFD966;" parent="XXJnfLqn3RMoecripVSo-62" vertex="1">
                    <mxGeometry x="220" width="63" height="30" as="geometry">
                        <mxRectangle width="50" height="30" as="alternateBounds"/>
                    </mxGeometry>
                </mxCell>
                <mxCell id="XXJnfLqn3RMoecripVSo-66" style="shape=partialRectangle;html=1;whiteSpace=wrap;connectable=0;overflow=hidden;fillColor=none;top=0;left=0;bottom=0;right=0;pointerEvents=1;strokeColor=#FFD966;" parent="XXJnfLqn3RMoecripVSo-62" vertex="1">
                    <mxGeometry x="283" width="42" height="30" as="geometry">
                        <mxRectangle width="30" height="30" as="alternateBounds"/>
                    </mxGeometry>
                </mxCell>
                <mxCell id="XXJnfLqn3RMoecripVSo-67" style="shape=partialRectangle;html=1;whiteSpace=wrap;connectable=0;overflow=hidden;fillColor=none;top=0;left=0;bottom=0;right=0;pointerEvents=1;strokeColor=#FFD966;" parent="XXJnfLqn3RMoecripVSo-62" vertex="1">
                    <mxGeometry x="325" width="115" height="30" as="geometry">
                        <mxRectangle width="60" height="30" as="alternateBounds"/>
                    </mxGeometry>
                </mxCell>
                <mxCell id="XXJnfLqn3RMoecripVSo-68" style="shape=partialRectangle;collapsible=0;dropTarget=0;pointerEvents=0;fillColor=none;top=0;left=0;bottom=0;right=0;points=[[0,0.5],[1,0.5]];portConstraint=eastwest;strokeColor=#FFD966;" parent="XXJnfLqn3RMoecripVSo-1" vertex="1">
                    <mxGeometry y="270" width="440" height="30" as="geometry"/>
                </mxCell>
                <mxCell id="XXJnfLqn3RMoecripVSo-69" value="9" style="shape=partialRectangle;html=1;whiteSpace=wrap;connectable=0;overflow=hidden;fillColor=none;top=0;left=0;bottom=0;right=0;pointerEvents=1;strokeColor=#FFD966;" parent="XXJnfLqn3RMoecripVSo-68" vertex="1">
                    <mxGeometry width="38" height="30" as="geometry">
                        <mxRectangle width="30" height="30" as="alternateBounds"/>
                    </mxGeometry>
                </mxCell>
                <mxCell id="XXJnfLqn3RMoecripVSo-70" value="profile_image" style="shape=partialRectangle;html=1;whiteSpace=wrap;connectable=0;overflow=hidden;fillColor=none;top=0;left=0;bottom=0;right=0;pointerEvents=1;strokeColor=#FFD966;align=left;" parent="XXJnfLqn3RMoecripVSo-68" vertex="1">
                    <mxGeometry x="38" width="182" height="30" as="geometry">
                        <mxRectangle width="180" height="30" as="alternateBounds"/>
                    </mxGeometry>
                </mxCell>
                <mxCell id="XXJnfLqn3RMoecripVSo-71" style="shape=partialRectangle;html=1;whiteSpace=wrap;connectable=0;overflow=hidden;fillColor=none;top=0;left=0;bottom=0;right=0;pointerEvents=1;strokeColor=#FFD966;" parent="XXJnfLqn3RMoecripVSo-68" vertex="1">
                    <mxGeometry x="220" width="63" height="30" as="geometry">
                        <mxRectangle width="50" height="30" as="alternateBounds"/>
                    </mxGeometry>
                </mxCell>
                <mxCell id="XXJnfLqn3RMoecripVSo-72" style="shape=partialRectangle;html=1;whiteSpace=wrap;connectable=0;overflow=hidden;fillColor=none;top=0;left=0;bottom=0;right=0;pointerEvents=1;strokeColor=#FFD966;" parent="XXJnfLqn3RMoecripVSo-68" vertex="1">
                    <mxGeometry x="283" width="42" height="30" as="geometry">
                        <mxRectangle width="30" height="30" as="alternateBounds"/>
                    </mxGeometry>
                </mxCell>
                <mxCell id="XXJnfLqn3RMoecripVSo-73" style="shape=partialRectangle;html=1;whiteSpace=wrap;connectable=0;overflow=hidden;fillColor=none;top=0;left=0;bottom=0;right=0;pointerEvents=1;strokeColor=#FFD966;" parent="XXJnfLqn3RMoecripVSo-68" vertex="1">
                    <mxGeometry x="325" width="115" height="30" as="geometry">
                        <mxRectangle width="60" height="30" as="alternateBounds"/>
                    </mxGeometry>
                </mxCell>
                <mxCell id="XXJnfLqn3RMoecripVSo-74" style="shape=partialRectangle;collapsible=0;dropTarget=0;pointerEvents=0;fillColor=none;top=0;left=0;bottom=0;right=0;points=[[0,0.5],[1,0.5]];portConstraint=eastwest;strokeColor=#FFD966;" parent="XXJnfLqn3RMoecripVSo-1" vertex="1">
                    <mxGeometry y="300" width="440" height="30" as="geometry"/>
                </mxCell>
                <mxCell id="XXJnfLqn3RMoecripVSo-75" value="10" style="shape=partialRectangle;html=1;whiteSpace=wrap;connectable=0;overflow=hidden;fillColor=none;top=0;left=0;bottom=0;right=0;pointerEvents=1;strokeColor=#FFD966;" parent="XXJnfLqn3RMoecripVSo-74" vertex="1">
                    <mxGeometry width="38" height="30" as="geometry">
                        <mxRectangle width="30" height="30" as="alternateBounds"/>
                    </mxGeometry>
                </mxCell>
                <mxCell id="XXJnfLqn3RMoecripVSo-76" value="profile_banner_image" style="shape=partialRectangle;html=1;whiteSpace=wrap;connectable=0;overflow=hidden;fillColor=none;top=0;left=0;bottom=0;right=0;pointerEvents=1;strokeColor=#FFD966;align=left;" parent="XXJnfLqn3RMoecripVSo-74" vertex="1">
                    <mxGeometry x="38" width="182" height="30" as="geometry">
                        <mxRectangle width="180" height="30" as="alternateBounds"/>
                    </mxGeometry>
                </mxCell>
                <mxCell id="XXJnfLqn3RMoecripVSo-77" style="shape=partialRectangle;html=1;whiteSpace=wrap;connectable=0;overflow=hidden;fillColor=none;top=0;left=0;bottom=0;right=0;pointerEvents=1;strokeColor=#FFD966;" parent="XXJnfLqn3RMoecripVSo-74" vertex="1">
                    <mxGeometry x="220" width="63" height="30" as="geometry">
                        <mxRectangle width="50" height="30" as="alternateBounds"/>
                    </mxGeometry>
                </mxCell>
                <mxCell id="XXJnfLqn3RMoecripVSo-78" style="shape=partialRectangle;html=1;whiteSpace=wrap;connectable=0;overflow=hidden;fillColor=none;top=0;left=0;bottom=0;right=0;pointerEvents=1;strokeColor=#FFD966;" parent="XXJnfLqn3RMoecripVSo-74" vertex="1">
                    <mxGeometry x="283" width="42" height="30" as="geometry">
                        <mxRectangle width="30" height="30" as="alternateBounds"/>
                    </mxGeometry>
                </mxCell>
                <mxCell id="XXJnfLqn3RMoecripVSo-79" style="shape=partialRectangle;html=1;whiteSpace=wrap;connectable=0;overflow=hidden;fillColor=none;top=0;left=0;bottom=0;right=0;pointerEvents=1;strokeColor=#FFD966;" parent="XXJnfLqn3RMoecripVSo-74" vertex="1">
                    <mxGeometry x="325" width="115" height="30" as="geometry">
                        <mxRectangle width="60" height="30" as="alternateBounds"/>
                    </mxGeometry>
                </mxCell>
                <mxCell id="XXJnfLqn3RMoecripVSo-80" style="shape=partialRectangle;collapsible=0;dropTarget=0;pointerEvents=0;fillColor=none;top=0;left=0;bottom=0;right=0;points=[[0,0.5],[1,0.5]];portConstraint=eastwest;strokeColor=#FFD966;" parent="XXJnfLqn3RMoecripVSo-1" vertex="1">
                    <mxGeometry y="330" width="440" height="30" as="geometry"/>
                </mxCell>
                <mxCell id="XXJnfLqn3RMoecripVSo-81" value="11" style="shape=partialRectangle;html=1;whiteSpace=wrap;connectable=0;overflow=hidden;fillColor=none;top=0;left=0;bottom=0;right=0;pointerEvents=1;strokeColor=#FFD966;" parent="XXJnfLqn3RMoecripVSo-80" vertex="1">
                    <mxGeometry width="38" height="30" as="geometry">
                        <mxRectangle width="30" height="30" as="alternateBounds"/>
                    </mxGeometry>
                </mxCell>
                <mxCell id="XXJnfLqn3RMoecripVSo-82" value="profile_id" style="shape=partialRectangle;html=1;whiteSpace=wrap;connectable=0;overflow=hidden;fillColor=none;top=0;left=0;bottom=0;right=0;pointerEvents=1;strokeColor=#FFD966;align=left;" parent="XXJnfLqn3RMoecripVSo-80" vertex="1">
                    <mxGeometry x="38" width="182" height="30" as="geometry">
                        <mxRectangle width="180" height="30" as="alternateBounds"/>
                    </mxGeometry>
                </mxCell>
                <mxCell id="XXJnfLqn3RMoecripVSo-83" style="shape=partialRectangle;html=1;whiteSpace=wrap;connectable=0;overflow=hidden;fillColor=none;top=0;left=0;bottom=0;right=0;pointerEvents=1;strokeColor=#FFD966;" parent="XXJnfLqn3RMoecripVSo-80" vertex="1">
                    <mxGeometry x="220" width="63" height="30" as="geometry">
                        <mxRectangle width="50" height="30" as="alternateBounds"/>
                    </mxGeometry>
                </mxCell>
                <mxCell id="XXJnfLqn3RMoecripVSo-84" style="shape=partialRectangle;html=1;whiteSpace=wrap;connectable=0;overflow=hidden;fillColor=none;top=0;left=0;bottom=0;right=0;pointerEvents=1;strokeColor=#FFD966;" parent="XXJnfLqn3RMoecripVSo-80" vertex="1">
                    <mxGeometry x="283" width="42" height="30" as="geometry">
                        <mxRectangle width="30" height="30" as="alternateBounds"/>
                    </mxGeometry>
                </mxCell>
                <mxCell id="XXJnfLqn3RMoecripVSo-85" style="shape=partialRectangle;html=1;whiteSpace=wrap;connectable=0;overflow=hidden;fillColor=none;top=0;left=0;bottom=0;right=0;pointerEvents=1;strokeColor=#FFD966;" parent="XXJnfLqn3RMoecripVSo-80" vertex="1">
                    <mxGeometry x="325" width="115" height="30" as="geometry">
                        <mxRectangle width="60" height="30" as="alternateBounds"/>
                    </mxGeometry>
                </mxCell>
                <mxCell id="XXJnfLqn3RMoecripVSo-86" style="shape=partialRectangle;collapsible=0;dropTarget=0;pointerEvents=0;fillColor=none;top=0;left=0;bottom=0;right=0;points=[[0,0.5],[1,0.5]];portConstraint=eastwest;strokeColor=#FFD966;" parent="XXJnfLqn3RMoecripVSo-1" vertex="1">
                    <mxGeometry y="360" width="440" height="30" as="geometry"/>
                </mxCell>
                <mxCell id="XXJnfLqn3RMoecripVSo-87" value="12" style="shape=partialRectangle;html=1;whiteSpace=wrap;connectable=0;overflow=hidden;fillColor=none;top=0;left=0;bottom=0;right=0;pointerEvents=1;strokeColor=#FFD966;" parent="XXJnfLqn3RMoecripVSo-86" vertex="1">
                    <mxGeometry width="38" height="30" as="geometry">
                        <mxRectangle width="30" height="30" as="alternateBounds"/>
                    </mxGeometry>
                </mxCell>
                <mxCell id="XXJnfLqn3RMoecripVSo-88" value="is_staff" style="shape=partialRectangle;html=1;whiteSpace=wrap;connectable=0;overflow=hidden;fillColor=none;top=0;left=0;bottom=0;right=0;pointerEvents=1;strokeColor=#FFD966;align=left;" parent="XXJnfLqn3RMoecripVSo-86" vertex="1">
                    <mxGeometry x="38" width="182" height="30" as="geometry">
                        <mxRectangle width="180" height="30" as="alternateBounds"/>
                    </mxGeometry>
                </mxCell>
                <mxCell id="XXJnfLqn3RMoecripVSo-89" style="shape=partialRectangle;html=1;whiteSpace=wrap;connectable=0;overflow=hidden;fillColor=none;top=0;left=0;bottom=0;right=0;pointerEvents=1;strokeColor=#FFD966;" parent="XXJnfLqn3RMoecripVSo-86" vertex="1">
                    <mxGeometry x="220" width="63" height="30" as="geometry">
                        <mxRectangle width="50" height="30" as="alternateBounds"/>
                    </mxGeometry>
                </mxCell>
                <mxCell id="XXJnfLqn3RMoecripVSo-90" style="shape=partialRectangle;html=1;whiteSpace=wrap;connectable=0;overflow=hidden;fillColor=none;top=0;left=0;bottom=0;right=0;pointerEvents=1;strokeColor=#FFD966;" parent="XXJnfLqn3RMoecripVSo-86" vertex="1">
                    <mxGeometry x="283" width="42" height="30" as="geometry">
                        <mxRectangle width="30" height="30" as="alternateBounds"/>
                    </mxGeometry>
                </mxCell>
                <mxCell id="XXJnfLqn3RMoecripVSo-91" style="shape=partialRectangle;html=1;whiteSpace=wrap;connectable=0;overflow=hidden;fillColor=none;top=0;left=0;bottom=0;right=0;pointerEvents=1;strokeColor=#FFD966;" parent="XXJnfLqn3RMoecripVSo-86" vertex="1">
                    <mxGeometry x="325" width="115" height="30" as="geometry">
                        <mxRectangle width="60" height="30" as="alternateBounds"/>
                    </mxGeometry>
                </mxCell>
                <mxCell id="XXJnfLqn3RMoecripVSo-92" style="shape=partialRectangle;collapsible=0;dropTarget=0;pointerEvents=0;fillColor=none;top=0;left=0;bottom=0;right=0;points=[[0,0.5],[1,0.5]];portConstraint=eastwest;strokeColor=#FFD966;" parent="XXJnfLqn3RMoecripVSo-1" vertex="1">
                    <mxGeometry y="390" width="440" height="30" as="geometry"/>
                </mxCell>
                <mxCell id="XXJnfLqn3RMoecripVSo-93" value="13" style="shape=partialRectangle;html=1;whiteSpace=wrap;connectable=0;overflow=hidden;fillColor=none;top=0;left=0;bottom=0;right=0;pointerEvents=1;strokeColor=#FFD966;" parent="XXJnfLqn3RMoecripVSo-92" vertex="1">
                    <mxGeometry width="38" height="30" as="geometry">
                        <mxRectangle width="30" height="30" as="alternateBounds"/>
                    </mxGeometry>
                </mxCell>
                <mxCell id="XXJnfLqn3RMoecripVSo-94" value="is_verified" style="shape=partialRectangle;html=1;whiteSpace=wrap;connectable=0;overflow=hidden;fillColor=none;top=0;left=0;bottom=0;right=0;pointerEvents=1;strokeColor=#FFD966;align=left;" parent="XXJnfLqn3RMoecripVSo-92" vertex="1">
                    <mxGeometry x="38" width="182" height="30" as="geometry">
                        <mxRectangle width="180" height="30" as="alternateBounds"/>
                    </mxGeometry>
                </mxCell>
                <mxCell id="XXJnfLqn3RMoecripVSo-95" style="shape=partialRectangle;html=1;whiteSpace=wrap;connectable=0;overflow=hidden;fillColor=none;top=0;left=0;bottom=0;right=0;pointerEvents=1;strokeColor=#FFD966;" parent="XXJnfLqn3RMoecripVSo-92" vertex="1">
                    <mxGeometry x="220" width="63" height="30" as="geometry">
                        <mxRectangle width="50" height="30" as="alternateBounds"/>
                    </mxGeometry>
                </mxCell>
                <mxCell id="XXJnfLqn3RMoecripVSo-96" style="shape=partialRectangle;html=1;whiteSpace=wrap;connectable=0;overflow=hidden;fillColor=none;top=0;left=0;bottom=0;right=0;pointerEvents=1;strokeColor=#FFD966;" parent="XXJnfLqn3RMoecripVSo-92" vertex="1">
                    <mxGeometry x="283" width="42" height="30" as="geometry">
                        <mxRectangle width="30" height="30" as="alternateBounds"/>
                    </mxGeometry>
                </mxCell>
                <mxCell id="XXJnfLqn3RMoecripVSo-97" style="shape=partialRectangle;html=1;whiteSpace=wrap;connectable=0;overflow=hidden;fillColor=none;top=0;left=0;bottom=0;right=0;pointerEvents=1;strokeColor=#FFD966;" parent="XXJnfLqn3RMoecripVSo-92" vertex="1">
                    <mxGeometry x="325" width="115" height="30" as="geometry">
                        <mxRectangle width="60" height="30" as="alternateBounds"/>
                    </mxGeometry>
                </mxCell>
                <mxCell id="XXJnfLqn3RMoecripVSo-98" style="shape=partialRectangle;collapsible=0;dropTarget=0;pointerEvents=0;fillColor=none;top=0;left=0;bottom=0;right=0;points=[[0,0.5],[1,0.5]];portConstraint=eastwest;strokeColor=#FFD966;" parent="XXJnfLqn3RMoecripVSo-1" vertex="1">
                    <mxGeometry y="420" width="440" height="30" as="geometry"/>
                </mxCell>
                <mxCell id="XXJnfLqn3RMoecripVSo-99" value="14" style="shape=partialRectangle;html=1;whiteSpace=wrap;connectable=0;overflow=hidden;fillColor=none;top=0;left=0;bottom=0;right=0;pointerEvents=1;strokeColor=#FFD966;" parent="XXJnfLqn3RMoecripVSo-98" vertex="1">
                    <mxGeometry width="38" height="30" as="geometry">
                        <mxRectangle width="30" height="30" as="alternateBounds"/>
                    </mxGeometry>
                </mxCell>
                <mxCell id="XXJnfLqn3RMoecripVSo-100" value="item_sold[]" style="shape=partialRectangle;html=1;whiteSpace=wrap;connectable=0;overflow=hidden;fillColor=none;top=0;left=0;bottom=0;right=0;pointerEvents=1;strokeColor=#FFD966;align=left;" parent="XXJnfLqn3RMoecripVSo-98" vertex="1">
                    <mxGeometry x="38" width="182" height="30" as="geometry">
                        <mxRectangle width="180" height="30" as="alternateBounds"/>
                    </mxGeometry>
                </mxCell>
                <mxCell id="XXJnfLqn3RMoecripVSo-101" style="shape=partialRectangle;html=1;whiteSpace=wrap;connectable=0;overflow=hidden;fillColor=none;top=0;left=0;bottom=0;right=0;pointerEvents=1;strokeColor=#FFD966;" parent="XXJnfLqn3RMoecripVSo-98" vertex="1">
                    <mxGeometry x="220" width="63" height="30" as="geometry">
                        <mxRectangle width="50" height="30" as="alternateBounds"/>
                    </mxGeometry>
                </mxCell>
                <mxCell id="XXJnfLqn3RMoecripVSo-102" style="shape=partialRectangle;html=1;whiteSpace=wrap;connectable=0;overflow=hidden;fillColor=none;top=0;left=0;bottom=0;right=0;pointerEvents=1;strokeColor=#FFD966;" parent="XXJnfLqn3RMoecripVSo-98" vertex="1">
                    <mxGeometry x="283" width="42" height="30" as="geometry">
                        <mxRectangle width="30" height="30" as="alternateBounds"/>
                    </mxGeometry>
                </mxCell>
                <mxCell id="XXJnfLqn3RMoecripVSo-103" style="shape=partialRectangle;html=1;whiteSpace=wrap;connectable=0;overflow=hidden;fillColor=none;top=0;left=0;bottom=0;right=0;pointerEvents=1;strokeColor=#FFD966;" parent="XXJnfLqn3RMoecripVSo-98" vertex="1">
                    <mxGeometry x="325" width="115" height="30" as="geometry">
                        <mxRectangle width="60" height="30" as="alternateBounds"/>
                    </mxGeometry>
                </mxCell>
                <mxCell id="XXJnfLqn3RMoecripVSo-104" style="shape=partialRectangle;collapsible=0;dropTarget=0;pointerEvents=0;fillColor=none;top=0;left=0;bottom=0;right=0;points=[[0,0.5],[1,0.5]];portConstraint=eastwest;strokeColor=#FFD966;" parent="XXJnfLqn3RMoecripVSo-1" vertex="1">
                    <mxGeometry y="450" width="440" height="30" as="geometry"/>
                </mxCell>
                <mxCell id="XXJnfLqn3RMoecripVSo-105" value="15" style="shape=partialRectangle;html=1;whiteSpace=wrap;connectable=0;overflow=hidden;fillColor=none;top=0;left=0;bottom=0;right=0;pointerEvents=1;strokeColor=#FFD966;" parent="XXJnfLqn3RMoecripVSo-104" vertex="1">
                    <mxGeometry width="38" height="30" as="geometry">
                        <mxRectangle width="30" height="30" as="alternateBounds"/>
                    </mxGeometry>
                </mxCell>
                <mxCell id="XXJnfLqn3RMoecripVSo-106" value="item_sold[].item_id" style="shape=partialRectangle;html=1;whiteSpace=wrap;connectable=0;overflow=hidden;fillColor=none;top=0;left=0;bottom=0;right=0;pointerEvents=1;strokeColor=#FFD966;align=left;" parent="XXJnfLqn3RMoecripVSo-104" vertex="1">
                    <mxGeometry x="38" width="182" height="30" as="geometry">
                        <mxRectangle width="180" height="30" as="alternateBounds"/>
                    </mxGeometry>
                </mxCell>
                <mxCell id="XXJnfLqn3RMoecripVSo-107" style="shape=partialRectangle;html=1;whiteSpace=wrap;connectable=0;overflow=hidden;fillColor=none;top=0;left=0;bottom=0;right=0;pointerEvents=1;strokeColor=#FFD966;" parent="XXJnfLqn3RMoecripVSo-104" vertex="1">
                    <mxGeometry x="220" width="63" height="30" as="geometry">
                        <mxRectangle width="50" height="30" as="alternateBounds"/>
                    </mxGeometry>
                </mxCell>
                <mxCell id="XXJnfLqn3RMoecripVSo-108" style="shape=partialRectangle;html=1;whiteSpace=wrap;connectable=0;overflow=hidden;fillColor=none;top=0;left=0;bottom=0;right=0;pointerEvents=1;strokeColor=#FFD966;" parent="XXJnfLqn3RMoecripVSo-104" vertex="1">
                    <mxGeometry x="283" width="42" height="30" as="geometry">
                        <mxRectangle width="30" height="30" as="alternateBounds"/>
                    </mxGeometry>
                </mxCell>
                <mxCell id="XXJnfLqn3RMoecripVSo-109" style="shape=partialRectangle;html=1;whiteSpace=wrap;connectable=0;overflow=hidden;fillColor=none;top=0;left=0;bottom=0;right=0;pointerEvents=1;strokeColor=#FFD966;" parent="XXJnfLqn3RMoecripVSo-104" vertex="1">
                    <mxGeometry x="325" width="115" height="30" as="geometry">
                        <mxRectangle width="60" height="30" as="alternateBounds"/>
                    </mxGeometry>
                </mxCell>
                <mxCell id="XXJnfLqn3RMoecripVSo-110" style="shape=partialRectangle;collapsible=0;dropTarget=0;pointerEvents=0;fillColor=none;top=0;left=0;bottom=0;right=0;points=[[0,0.5],[1,0.5]];portConstraint=eastwest;strokeColor=#FFD966;" parent="XXJnfLqn3RMoecripVSo-1" vertex="1">
                    <mxGeometry y="480" width="440" height="30" as="geometry"/>
                </mxCell>
                <mxCell id="XXJnfLqn3RMoecripVSo-111" value="16" style="shape=partialRectangle;html=1;whiteSpace=wrap;connectable=0;overflow=hidden;fillColor=none;top=0;left=0;bottom=0;right=0;pointerEvents=1;strokeColor=#FFD966;align=center;" parent="XXJnfLqn3RMoecripVSo-110" vertex="1">
                    <mxGeometry width="38" height="30" as="geometry">
                        <mxRectangle width="30" height="30" as="alternateBounds"/>
                    </mxGeometry>
                </mxCell>
                <mxCell id="XXJnfLqn3RMoecripVSo-112" value="item_sold[].time_stamp" style="shape=partialRectangle;html=1;whiteSpace=wrap;connectable=0;overflow=hidden;fillColor=none;top=0;left=0;bottom=0;right=0;pointerEvents=1;strokeColor=#FFD966;align=left;" parent="XXJnfLqn3RMoecripVSo-110" vertex="1">
                    <mxGeometry x="38" width="182" height="30" as="geometry">
                        <mxRectangle width="180" height="30" as="alternateBounds"/>
                    </mxGeometry>
                </mxCell>
                <mxCell id="XXJnfLqn3RMoecripVSo-113" style="shape=partialRectangle;html=1;whiteSpace=wrap;connectable=0;overflow=hidden;fillColor=none;top=0;left=0;bottom=0;right=0;pointerEvents=1;strokeColor=#FFD966;" parent="XXJnfLqn3RMoecripVSo-110" vertex="1">
                    <mxGeometry x="220" width="63" height="30" as="geometry">
                        <mxRectangle width="50" height="30" as="alternateBounds"/>
                    </mxGeometry>
                </mxCell>
                <mxCell id="XXJnfLqn3RMoecripVSo-114" style="shape=partialRectangle;html=1;whiteSpace=wrap;connectable=0;overflow=hidden;fillColor=none;top=0;left=0;bottom=0;right=0;pointerEvents=1;strokeColor=#FFD966;" parent="XXJnfLqn3RMoecripVSo-110" vertex="1">
                    <mxGeometry x="283" width="42" height="30" as="geometry">
                        <mxRectangle width="30" height="30" as="alternateBounds"/>
                    </mxGeometry>
                </mxCell>
                <mxCell id="XXJnfLqn3RMoecripVSo-115" style="shape=partialRectangle;html=1;whiteSpace=wrap;connectable=0;overflow=hidden;fillColor=none;top=0;left=0;bottom=0;right=0;pointerEvents=1;strokeColor=#FFD966;" parent="XXJnfLqn3RMoecripVSo-110" vertex="1">
                    <mxGeometry x="325" width="115" height="30" as="geometry">
                        <mxRectangle width="60" height="30" as="alternateBounds"/>
                    </mxGeometry>
                </mxCell>
                <mxCell id="XXJnfLqn3RMoecripVSo-116" style="shape=partialRectangle;collapsible=0;dropTarget=0;pointerEvents=0;fillColor=none;top=0;left=0;bottom=0;right=0;points=[[0,0.5],[1,0.5]];portConstraint=eastwest;strokeColor=#FFD966;" parent="XXJnfLqn3RMoecripVSo-1" vertex="1">
                    <mxGeometry y="510" width="440" height="30" as="geometry"/>
                </mxCell>
                <mxCell id="XXJnfLqn3RMoecripVSo-117" value="17" style="shape=partialRectangle;html=1;whiteSpace=wrap;connectable=0;overflow=hidden;fillColor=none;top=0;left=0;bottom=0;right=0;pointerEvents=1;strokeColor=#FFD966;align=center;" parent="XXJnfLqn3RMoecripVSo-116" vertex="1">
                    <mxGeometry width="38" height="30" as="geometry">
                        <mxRectangle width="30" height="30" as="alternateBounds"/>
                    </mxGeometry>
                </mxCell>
                <mxCell id="XXJnfLqn3RMoecripVSo-118" value="my_item[]" style="shape=partialRectangle;html=1;whiteSpace=wrap;connectable=0;overflow=hidden;fillColor=none;top=0;left=0;bottom=0;right=0;pointerEvents=1;strokeColor=#FFD966;align=left;" parent="XXJnfLqn3RMoecripVSo-116" vertex="1">
                    <mxGeometry x="38" width="182" height="30" as="geometry">
                        <mxRectangle width="180" height="30" as="alternateBounds"/>
                    </mxGeometry>
                </mxCell>
                <mxCell id="XXJnfLqn3RMoecripVSo-119" style="shape=partialRectangle;html=1;whiteSpace=wrap;connectable=0;overflow=hidden;fillColor=none;top=0;left=0;bottom=0;right=0;pointerEvents=1;strokeColor=#FFD966;" parent="XXJnfLqn3RMoecripVSo-116" vertex="1">
                    <mxGeometry x="220" width="63" height="30" as="geometry">
                        <mxRectangle width="50" height="30" as="alternateBounds"/>
                    </mxGeometry>
                </mxCell>
                <mxCell id="XXJnfLqn3RMoecripVSo-120" style="shape=partialRectangle;html=1;whiteSpace=wrap;connectable=0;overflow=hidden;fillColor=none;top=0;left=0;bottom=0;right=0;pointerEvents=1;strokeColor=#FFD966;" parent="XXJnfLqn3RMoecripVSo-116" vertex="1">
                    <mxGeometry x="283" width="42" height="30" as="geometry">
                        <mxRectangle width="30" height="30" as="alternateBounds"/>
                    </mxGeometry>
                </mxCell>
                <mxCell id="XXJnfLqn3RMoecripVSo-121" style="shape=partialRectangle;html=1;whiteSpace=wrap;connectable=0;overflow=hidden;fillColor=none;top=0;left=0;bottom=0;right=0;pointerEvents=1;strokeColor=#FFD966;" parent="XXJnfLqn3RMoecripVSo-116" vertex="1">
                    <mxGeometry x="325" width="115" height="30" as="geometry">
                        <mxRectangle width="60" height="30" as="alternateBounds"/>
                    </mxGeometry>
                </mxCell>
                <mxCell id="XXJnfLqn3RMoecripVSo-122" style="shape=partialRectangle;collapsible=0;dropTarget=0;pointerEvents=0;fillColor=none;top=0;left=0;bottom=0;right=0;points=[[0,0.5],[1,0.5]];portConstraint=eastwest;strokeColor=#FFD966;" parent="XXJnfLqn3RMoecripVSo-1" vertex="1">
                    <mxGeometry y="540" width="440" height="30" as="geometry"/>
                </mxCell>
                <mxCell id="XXJnfLqn3RMoecripVSo-123" value="18" style="shape=partialRectangle;html=1;whiteSpace=wrap;connectable=0;overflow=hidden;fillColor=none;top=0;left=0;bottom=0;right=0;pointerEvents=1;strokeColor=#FFD966;align=center;" parent="XXJnfLqn3RMoecripVSo-122" vertex="1">
                    <mxGeometry width="38" height="30" as="geometry">
                        <mxRectangle width="30" height="30" as="alternateBounds"/>
                    </mxGeometry>
                </mxCell>
                <mxCell id="XXJnfLqn3RMoecripVSo-124" value="favorite[]" style="shape=partialRectangle;html=1;whiteSpace=wrap;connectable=0;overflow=hidden;fillColor=none;top=0;left=0;bottom=0;right=0;pointerEvents=1;strokeColor=#FFD966;align=left;" parent="XXJnfLqn3RMoecripVSo-122" vertex="1">
                    <mxGeometry x="38" width="182" height="30" as="geometry">
                        <mxRectangle width="180" height="30" as="alternateBounds"/>
                    </mxGeometry>
                </mxCell>
                <mxCell id="XXJnfLqn3RMoecripVSo-125" style="shape=partialRectangle;html=1;whiteSpace=wrap;connectable=0;overflow=hidden;fillColor=none;top=0;left=0;bottom=0;right=0;pointerEvents=1;strokeColor=#FFD966;" parent="XXJnfLqn3RMoecripVSo-122" vertex="1">
                    <mxGeometry x="220" width="63" height="30" as="geometry">
                        <mxRectangle width="50" height="30" as="alternateBounds"/>
                    </mxGeometry>
                </mxCell>
                <mxCell id="XXJnfLqn3RMoecripVSo-126" style="shape=partialRectangle;html=1;whiteSpace=wrap;connectable=0;overflow=hidden;fillColor=none;top=0;left=0;bottom=0;right=0;pointerEvents=1;strokeColor=#FFD966;" parent="XXJnfLqn3RMoecripVSo-122" vertex="1">
                    <mxGeometry x="283" width="42" height="30" as="geometry">
                        <mxRectangle width="30" height="30" as="alternateBounds"/>
                    </mxGeometry>
                </mxCell>
                <mxCell id="XXJnfLqn3RMoecripVSo-127" style="shape=partialRectangle;html=1;whiteSpace=wrap;connectable=0;overflow=hidden;fillColor=none;top=0;left=0;bottom=0;right=0;pointerEvents=1;strokeColor=#FFD966;" parent="XXJnfLqn3RMoecripVSo-122" vertex="1">
                    <mxGeometry x="325" width="115" height="30" as="geometry">
                        <mxRectangle width="60" height="30" as="alternateBounds"/>
                    </mxGeometry>
                </mxCell>
                <mxCell id="XXJnfLqn3RMoecripVSo-128" style="shape=partialRectangle;collapsible=0;dropTarget=0;pointerEvents=0;fillColor=none;top=0;left=0;bottom=0;right=0;points=[[0,0.5],[1,0.5]];portConstraint=eastwest;strokeColor=#FFD966;" parent="XXJnfLqn3RMoecripVSo-1" vertex="1">
                    <mxGeometry y="570" width="440" height="30" as="geometry"/>
                </mxCell>
                <mxCell id="XXJnfLqn3RMoecripVSo-129" value="19" style="shape=partialRectangle;html=1;whiteSpace=wrap;connectable=0;overflow=hidden;fillColor=none;top=0;left=0;bottom=0;right=0;pointerEvents=1;strokeColor=#FFD966;align=center;" parent="XXJnfLqn3RMoecripVSo-128" vertex="1">
                    <mxGeometry width="38" height="30" as="geometry">
                        <mxRectangle width="30" height="30" as="alternateBounds"/>
                    </mxGeometry>
                </mxCell>
                <mxCell id="XXJnfLqn3RMoecripVSo-130" value="favorite[].item_id" style="shape=partialRectangle;html=1;whiteSpace=wrap;connectable=0;overflow=hidden;fillColor=none;top=0;left=0;bottom=0;right=0;pointerEvents=1;strokeColor=#FFD966;align=left;" parent="XXJnfLqn3RMoecripVSo-128" vertex="1">
                    <mxGeometry x="38" width="182" height="30" as="geometry">
                        <mxRectangle width="180" height="30" as="alternateBounds"/>
                    </mxGeometry>
                </mxCell>
                <mxCell id="XXJnfLqn3RMoecripVSo-131" style="shape=partialRectangle;html=1;whiteSpace=wrap;connectable=0;overflow=hidden;fillColor=none;top=0;left=0;bottom=0;right=0;pointerEvents=1;strokeColor=#FFD966;" parent="XXJnfLqn3RMoecripVSo-128" vertex="1">
                    <mxGeometry x="220" width="63" height="30" as="geometry">
                        <mxRectangle width="50" height="30" as="alternateBounds"/>
                    </mxGeometry>
                </mxCell>
                <mxCell id="XXJnfLqn3RMoecripVSo-132" style="shape=partialRectangle;html=1;whiteSpace=wrap;connectable=0;overflow=hidden;fillColor=none;top=0;left=0;bottom=0;right=0;pointerEvents=1;strokeColor=#FFD966;" parent="XXJnfLqn3RMoecripVSo-128" vertex="1">
                    <mxGeometry x="283" width="42" height="30" as="geometry">
                        <mxRectangle width="30" height="30" as="alternateBounds"/>
                    </mxGeometry>
                </mxCell>
                <mxCell id="XXJnfLqn3RMoecripVSo-133" style="shape=partialRectangle;html=1;whiteSpace=wrap;connectable=0;overflow=hidden;fillColor=none;top=0;left=0;bottom=0;right=0;pointerEvents=1;strokeColor=#FFD966;" parent="XXJnfLqn3RMoecripVSo-128" vertex="1">
                    <mxGeometry x="325" width="115" height="30" as="geometry">
                        <mxRectangle width="60" height="30" as="alternateBounds"/>
                    </mxGeometry>
                </mxCell>
                <mxCell id="XXJnfLqn3RMoecripVSo-134" style="shape=partialRectangle;collapsible=0;dropTarget=0;pointerEvents=0;fillColor=none;top=0;left=0;bottom=0;right=0;points=[[0,0.5],[1,0.5]];portConstraint=eastwest;strokeColor=#FFD966;" parent="XXJnfLqn3RMoecripVSo-1" vertex="1">
                    <mxGeometry y="600" width="440" height="30" as="geometry"/>
                </mxCell>
                <mxCell id="XXJnfLqn3RMoecripVSo-135" value="20" style="shape=partialRectangle;html=1;whiteSpace=wrap;connectable=0;overflow=hidden;fillColor=none;top=0;left=0;bottom=0;right=0;pointerEvents=1;strokeColor=#FFD966;align=center;" parent="XXJnfLqn3RMoecripVSo-134" vertex="1">
                    <mxGeometry width="38" height="30" as="geometry">
                        <mxRectangle width="30" height="30" as="alternateBounds"/>
                    </mxGeometry>
                </mxCell>
                <mxCell id="XXJnfLqn3RMoecripVSo-136" value="favorite[].profile_id" style="shape=partialRectangle;html=1;whiteSpace=wrap;connectable=0;overflow=hidden;fillColor=none;top=0;left=0;bottom=0;right=0;pointerEvents=1;strokeColor=#FFD966;align=left;" parent="XXJnfLqn3RMoecripVSo-134" vertex="1">
                    <mxGeometry x="38" width="182" height="30" as="geometry">
                        <mxRectangle width="180" height="30" as="alternateBounds"/>
                    </mxGeometry>
                </mxCell>
                <mxCell id="XXJnfLqn3RMoecripVSo-137" style="shape=partialRectangle;html=1;whiteSpace=wrap;connectable=0;overflow=hidden;fillColor=none;top=0;left=0;bottom=0;right=0;pointerEvents=1;strokeColor=#FFD966;" parent="XXJnfLqn3RMoecripVSo-134" vertex="1">
                    <mxGeometry x="220" width="63" height="30" as="geometry">
                        <mxRectangle width="50" height="30" as="alternateBounds"/>
                    </mxGeometry>
                </mxCell>
                <mxCell id="XXJnfLqn3RMoecripVSo-138" style="shape=partialRectangle;html=1;whiteSpace=wrap;connectable=0;overflow=hidden;fillColor=none;top=0;left=0;bottom=0;right=0;pointerEvents=1;strokeColor=#FFD966;" parent="XXJnfLqn3RMoecripVSo-134" vertex="1">
                    <mxGeometry x="283" width="42" height="30" as="geometry">
                        <mxRectangle width="30" height="30" as="alternateBounds"/>
                    </mxGeometry>
                </mxCell>
                <mxCell id="XXJnfLqn3RMoecripVSo-139" style="shape=partialRectangle;html=1;whiteSpace=wrap;connectable=0;overflow=hidden;fillColor=none;top=0;left=0;bottom=0;right=0;pointerEvents=1;strokeColor=#FFD966;" parent="XXJnfLqn3RMoecripVSo-134" vertex="1">
                    <mxGeometry x="325" width="115" height="30" as="geometry">
                        <mxRectangle width="60" height="30" as="alternateBounds"/>
                    </mxGeometry>
                </mxCell>
                <mxCell id="XXJnfLqn3RMoecripVSo-140" value="" style="shape=table;startSize=0;container=1;collapsible=0;childLayout=tableLayout;strokeColor=#330000;" parent="1" vertex="1">
                    <mxGeometry x="160" y="120" width="440" height="720" as="geometry"/>
                </mxCell>
                <mxCell id="XXJnfLqn3RMoecripVSo-327" style="shape=partialRectangle;collapsible=0;dropTarget=0;pointerEvents=0;fillColor=none;top=0;left=0;bottom=0;right=0;points=[[0,0.5],[1,0.5]];portConstraint=eastwest;strokeColor=#FFD966;" parent="XXJnfLqn3RMoecripVSo-140" vertex="1">
                    <mxGeometry width="440" height="30" as="geometry"/>
                </mxCell>
                <mxCell id="XXJnfLqn3RMoecripVSo-328" value="no" style="shape=partialRectangle;html=1;whiteSpace=wrap;connectable=0;overflow=hidden;fillColor=#0050ef;top=0;left=0;bottom=0;right=0;pointerEvents=1;strokeColor=#001DBC;fontStyle=1;fontColor=#ffffff;" parent="XXJnfLqn3RMoecripVSo-327" vertex="1">
                    <mxGeometry width="38" height="30" as="geometry">
                        <mxRectangle width="30" height="30" as="alternateBounds"/>
                    </mxGeometry>
                </mxCell>
                <mxCell id="XXJnfLqn3RMoecripVSo-329" value="field" style="shape=partialRectangle;html=1;whiteSpace=wrap;connectable=0;overflow=hidden;fillColor=#0050ef;top=0;left=0;bottom=0;right=0;pointerEvents=1;strokeColor=#001DBC;align=left;fontStyle=1;fontColor=#ffffff;" parent="XXJnfLqn3RMoecripVSo-327" vertex="1">
                    <mxGeometry x="38" width="212" height="30" as="geometry">
                        <mxRectangle width="180" height="30" as="alternateBounds"/>
                    </mxGeometry>
                </mxCell>
                <mxCell id="XXJnfLqn3RMoecripVSo-330" value="type" style="shape=partialRectangle;html=1;whiteSpace=wrap;connectable=0;overflow=hidden;fillColor=#0050ef;top=0;left=0;bottom=0;right=0;pointerEvents=1;strokeColor=#001DBC;fontStyle=1;fontColor=#ffffff;" parent="XXJnfLqn3RMoecripVSo-327" vertex="1">
                    <mxGeometry x="250" width="60" height="30" as="geometry">
                        <mxRectangle width="50" height="30" as="alternateBounds"/>
                    </mxGeometry>
                </mxCell>
                <mxCell id="XXJnfLqn3RMoecripVSo-331" value="key" style="shape=partialRectangle;html=1;whiteSpace=wrap;connectable=0;overflow=hidden;fillColor=#0050ef;top=0;left=0;bottom=0;right=0;pointerEvents=1;strokeColor=#001DBC;fontStyle=1;fontColor=#ffffff;" parent="XXJnfLqn3RMoecripVSo-327" vertex="1">
                    <mxGeometry x="310" width="40" height="30" as="geometry">
                        <mxRectangle width="30" height="30" as="alternateBounds"/>
                    </mxGeometry>
                </mxCell>
                <mxCell id="XXJnfLqn3RMoecripVSo-332" value="description" style="shape=partialRectangle;html=1;whiteSpace=wrap;connectable=0;overflow=hidden;fillColor=#0050ef;top=0;left=0;bottom=0;right=0;pointerEvents=1;strokeColor=#001DBC;fontStyle=1;fontColor=#ffffff;" parent="XXJnfLqn3RMoecripVSo-327" vertex="1">
                    <mxGeometry x="350" width="90" height="30" as="geometry">
                        <mxRectangle width="60" height="30" as="alternateBounds"/>
                    </mxGeometry>
                </mxCell>
                <mxCell id="XXJnfLqn3RMoecripVSo-141" value="" style="shape=partialRectangle;collapsible=0;dropTarget=0;pointerEvents=0;fillColor=none;top=0;left=0;bottom=0;right=0;points=[[0,0.5],[1,0.5]];portConstraint=eastwest;strokeColor=#FFD966;" parent="XXJnfLqn3RMoecripVSo-140" vertex="1">
                    <mxGeometry y="30" width="440" height="30" as="geometry"/>
                </mxCell>
                <mxCell id="XXJnfLqn3RMoecripVSo-142" value="1" style="shape=partialRectangle;html=1;whiteSpace=wrap;connectable=0;overflow=hidden;fillColor=none;top=0;left=0;bottom=0;right=0;pointerEvents=1;strokeColor=#FFD966;" parent="XXJnfLqn3RMoecripVSo-141" vertex="1">
                    <mxGeometry width="38" height="30" as="geometry">
                        <mxRectangle width="30" height="30" as="alternateBounds"/>
                    </mxGeometry>
                </mxCell>
                <mxCell id="XXJnfLqn3RMoecripVSo-143" value="owner_address" style="shape=partialRectangle;html=1;whiteSpace=wrap;connectable=0;overflow=hidden;fillColor=none;top=0;left=0;bottom=0;right=0;pointerEvents=1;strokeColor=#FFD966;align=left;" parent="XXJnfLqn3RMoecripVSo-141" vertex="1">
                    <mxGeometry x="38" width="212" height="30" as="geometry">
                        <mxRectangle width="180" height="30" as="alternateBounds"/>
                    </mxGeometry>
                </mxCell>
                <mxCell id="XXJnfLqn3RMoecripVSo-144" value="string" style="shape=partialRectangle;html=1;whiteSpace=wrap;connectable=0;overflow=hidden;fillColor=none;top=0;left=0;bottom=0;right=0;pointerEvents=1;strokeColor=#FFD966;" parent="XXJnfLqn3RMoecripVSo-141" vertex="1">
                    <mxGeometry x="250" width="60" height="30" as="geometry">
                        <mxRectangle width="50" height="30" as="alternateBounds"/>
                    </mxGeometry>
                </mxCell>
                <mxCell id="XXJnfLqn3RMoecripVSo-145" value="" style="shape=partialRectangle;html=1;whiteSpace=wrap;connectable=0;overflow=hidden;fillColor=none;top=0;left=0;bottom=0;right=0;pointerEvents=1;strokeColor=#FFD966;" parent="XXJnfLqn3RMoecripVSo-141" vertex="1">
                    <mxGeometry x="310" width="40" height="30" as="geometry">
                        <mxRectangle width="30" height="30" as="alternateBounds"/>
                    </mxGeometry>
                </mxCell>
                <mxCell id="XXJnfLqn3RMoecripVSo-146" value="" style="shape=partialRectangle;html=1;whiteSpace=wrap;connectable=0;overflow=hidden;fillColor=none;top=0;left=0;bottom=0;right=0;pointerEvents=1;strokeColor=#FFD966;" parent="XXJnfLqn3RMoecripVSo-141" vertex="1">
                    <mxGeometry x="350" width="90" height="30" as="geometry">
                        <mxRectangle width="60" height="30" as="alternateBounds"/>
                    </mxGeometry>
                </mxCell>
                <mxCell id="XXJnfLqn3RMoecripVSo-147" value="" style="shape=partialRectangle;collapsible=0;dropTarget=0;pointerEvents=0;fillColor=none;top=0;left=0;bottom=0;right=0;points=[[0,0.5],[1,0.5]];portConstraint=eastwest;strokeColor=#FFD966;" parent="XXJnfLqn3RMoecripVSo-140" vertex="1">
                    <mxGeometry y="60" width="440" height="30" as="geometry"/>
                </mxCell>
                <mxCell id="XXJnfLqn3RMoecripVSo-148" value="2" style="shape=partialRectangle;html=1;whiteSpace=wrap;connectable=0;overflow=hidden;fillColor=none;top=0;left=0;bottom=0;right=0;pointerEvents=1;strokeColor=#FFD966;" parent="XXJnfLqn3RMoecripVSo-147" vertex="1">
                    <mxGeometry width="38" height="30" as="geometry">
                        <mxRectangle width="30" height="30" as="alternateBounds"/>
                    </mxGeometry>
                </mxCell>
                <mxCell id="XXJnfLqn3RMoecripVSo-149" value="item_id" style="shape=partialRectangle;html=1;whiteSpace=wrap;connectable=0;overflow=hidden;fillColor=none;top=0;left=0;bottom=0;right=0;pointerEvents=1;strokeColor=#FFD966;align=left;" parent="XXJnfLqn3RMoecripVSo-147" vertex="1">
                    <mxGeometry x="38" width="212" height="30" as="geometry">
                        <mxRectangle width="180" height="30" as="alternateBounds"/>
                    </mxGeometry>
                </mxCell>
                <mxCell id="XXJnfLqn3RMoecripVSo-150" value="" style="shape=partialRectangle;html=1;whiteSpace=wrap;connectable=0;overflow=hidden;fillColor=none;top=0;left=0;bottom=0;right=0;pointerEvents=1;strokeColor=#FFD966;" parent="XXJnfLqn3RMoecripVSo-147" vertex="1">
                    <mxGeometry x="250" width="60" height="30" as="geometry">
                        <mxRectangle width="50" height="30" as="alternateBounds"/>
                    </mxGeometry>
                </mxCell>
                <mxCell id="XXJnfLqn3RMoecripVSo-151" value="" style="shape=partialRectangle;html=1;whiteSpace=wrap;connectable=0;overflow=hidden;fillColor=none;top=0;left=0;bottom=0;right=0;pointerEvents=1;strokeColor=#FFD966;" parent="XXJnfLqn3RMoecripVSo-147" vertex="1">
                    <mxGeometry x="310" width="40" height="30" as="geometry">
                        <mxRectangle width="30" height="30" as="alternateBounds"/>
                    </mxGeometry>
                </mxCell>
                <mxCell id="XXJnfLqn3RMoecripVSo-152" value="" style="shape=partialRectangle;html=1;whiteSpace=wrap;connectable=0;overflow=hidden;fillColor=none;top=0;left=0;bottom=0;right=0;pointerEvents=1;strokeColor=#FFD966;" parent="XXJnfLqn3RMoecripVSo-147" vertex="1">
                    <mxGeometry x="350" width="90" height="30" as="geometry">
                        <mxRectangle width="60" height="30" as="alternateBounds"/>
                    </mxGeometry>
                </mxCell>
                <mxCell id="XXJnfLqn3RMoecripVSo-153" value="" style="shape=partialRectangle;collapsible=0;dropTarget=0;pointerEvents=0;fillColor=none;top=0;left=0;bottom=0;right=0;points=[[0,0.5],[1,0.5]];portConstraint=eastwest;strokeColor=#FFD966;" parent="XXJnfLqn3RMoecripVSo-140" vertex="1">
                    <mxGeometry y="90" width="440" height="30" as="geometry"/>
                </mxCell>
                <mxCell id="XXJnfLqn3RMoecripVSo-154" value="3" style="shape=partialRectangle;html=1;whiteSpace=wrap;connectable=0;overflow=hidden;fillColor=none;top=0;left=0;bottom=0;right=0;pointerEvents=1;strokeColor=#FFD966;" parent="XXJnfLqn3RMoecripVSo-153" vertex="1">
                    <mxGeometry width="38" height="30" as="geometry">
                        <mxRectangle width="30" height="30" as="alternateBounds"/>
                    </mxGeometry>
                </mxCell>
                <mxCell id="XXJnfLqn3RMoecripVSo-155" value="token_id" style="shape=partialRectangle;html=1;whiteSpace=wrap;connectable=0;overflow=hidden;fillColor=none;top=0;left=0;bottom=0;right=0;pointerEvents=1;strokeColor=#FFD966;align=left;" parent="XXJnfLqn3RMoecripVSo-153" vertex="1">
                    <mxGeometry x="38" width="212" height="30" as="geometry">
                        <mxRectangle width="180" height="30" as="alternateBounds"/>
                    </mxGeometry>
                </mxCell>
                <mxCell id="XXJnfLqn3RMoecripVSo-156" value="" style="shape=partialRectangle;html=1;whiteSpace=wrap;connectable=0;overflow=hidden;fillColor=none;top=0;left=0;bottom=0;right=0;pointerEvents=1;strokeColor=#FFD966;" parent="XXJnfLqn3RMoecripVSo-153" vertex="1">
                    <mxGeometry x="250" width="60" height="30" as="geometry">
                        <mxRectangle width="50" height="30" as="alternateBounds"/>
                    </mxGeometry>
                </mxCell>
                <mxCell id="XXJnfLqn3RMoecripVSo-157" value="" style="shape=partialRectangle;html=1;whiteSpace=wrap;connectable=0;overflow=hidden;fillColor=none;top=0;left=0;bottom=0;right=0;pointerEvents=1;strokeColor=#FFD966;" parent="XXJnfLqn3RMoecripVSo-153" vertex="1">
                    <mxGeometry x="310" width="40" height="30" as="geometry">
                        <mxRectangle width="30" height="30" as="alternateBounds"/>
                    </mxGeometry>
                </mxCell>
                <mxCell id="XXJnfLqn3RMoecripVSo-158" value="" style="shape=partialRectangle;html=1;whiteSpace=wrap;connectable=0;overflow=hidden;fillColor=none;top=0;left=0;bottom=0;right=0;pointerEvents=1;strokeColor=#FFD966;" parent="XXJnfLqn3RMoecripVSo-153" vertex="1">
                    <mxGeometry x="350" width="90" height="30" as="geometry">
                        <mxRectangle width="60" height="30" as="alternateBounds"/>
                    </mxGeometry>
                </mxCell>
                <mxCell id="XXJnfLqn3RMoecripVSo-159" value="" style="shape=partialRectangle;collapsible=0;dropTarget=0;pointerEvents=0;fillColor=none;top=0;left=0;bottom=0;right=0;points=[[0,0.5],[1,0.5]];portConstraint=eastwest;strokeColor=#FFD966;" parent="XXJnfLqn3RMoecripVSo-140" vertex="1">
                    <mxGeometry y="120" width="440" height="30" as="geometry"/>
                </mxCell>
                <mxCell id="XXJnfLqn3RMoecripVSo-160" value="4" style="shape=partialRectangle;html=1;whiteSpace=wrap;connectable=0;overflow=hidden;fillColor=none;top=0;left=0;bottom=0;right=0;pointerEvents=1;strokeColor=#FFD966;" parent="XXJnfLqn3RMoecripVSo-159" vertex="1">
                    <mxGeometry width="38" height="30" as="geometry">
                        <mxRectangle width="30" height="30" as="alternateBounds"/>
                    </mxGeometry>
                </mxCell>
                <mxCell id="XXJnfLqn3RMoecripVSo-161" value="num_sales" style="shape=partialRectangle;html=1;whiteSpace=wrap;connectable=0;overflow=hidden;fillColor=none;top=0;left=0;bottom=0;right=0;pointerEvents=1;strokeColor=#FFD966;align=left;" parent="XXJnfLqn3RMoecripVSo-159" vertex="1">
                    <mxGeometry x="38" width="212" height="30" as="geometry">
                        <mxRectangle width="180" height="30" as="alternateBounds"/>
                    </mxGeometry>
                </mxCell>
                <mxCell id="XXJnfLqn3RMoecripVSo-162" value="" style="shape=partialRectangle;html=1;whiteSpace=wrap;connectable=0;overflow=hidden;fillColor=none;top=0;left=0;bottom=0;right=0;pointerEvents=1;strokeColor=#FFD966;" parent="XXJnfLqn3RMoecripVSo-159" vertex="1">
                    <mxGeometry x="250" width="60" height="30" as="geometry">
                        <mxRectangle width="50" height="30" as="alternateBounds"/>
                    </mxGeometry>
                </mxCell>
                <mxCell id="XXJnfLqn3RMoecripVSo-163" value="" style="shape=partialRectangle;html=1;whiteSpace=wrap;connectable=0;overflow=hidden;fillColor=none;top=0;left=0;bottom=0;right=0;pointerEvents=1;strokeColor=#FFD966;" parent="XXJnfLqn3RMoecripVSo-159" vertex="1">
                    <mxGeometry x="310" width="40" height="30" as="geometry">
                        <mxRectangle width="30" height="30" as="alternateBounds"/>
                    </mxGeometry>
                </mxCell>
                <mxCell id="XXJnfLqn3RMoecripVSo-164" value="" style="shape=partialRectangle;html=1;whiteSpace=wrap;connectable=0;overflow=hidden;fillColor=none;top=0;left=0;bottom=0;right=0;pointerEvents=1;strokeColor=#FFD966;" parent="XXJnfLqn3RMoecripVSo-159" vertex="1">
                    <mxGeometry x="350" width="90" height="30" as="geometry">
                        <mxRectangle width="60" height="30" as="alternateBounds"/>
                    </mxGeometry>
                </mxCell>
                <mxCell id="XXJnfLqn3RMoecripVSo-165" value="" style="shape=partialRectangle;collapsible=0;dropTarget=0;pointerEvents=0;fillColor=none;top=0;left=0;bottom=0;right=0;points=[[0,0.5],[1,0.5]];portConstraint=eastwest;strokeColor=#FFD966;" parent="XXJnfLqn3RMoecripVSo-140" vertex="1">
                    <mxGeometry y="150" width="440" height="30" as="geometry"/>
                </mxCell>
                <mxCell id="XXJnfLqn3RMoecripVSo-166" value="5" style="shape=partialRectangle;html=1;whiteSpace=wrap;connectable=0;overflow=hidden;fillColor=none;top=0;left=0;bottom=0;right=0;pointerEvents=1;strokeColor=#FFD966;" parent="XXJnfLqn3RMoecripVSo-165" vertex="1">
                    <mxGeometry width="38" height="30" as="geometry">
                        <mxRectangle width="30" height="30" as="alternateBounds"/>
                    </mxGeometry>
                </mxCell>
                <mxCell id="XXJnfLqn3RMoecripVSo-167" value="num_favorite" style="shape=partialRectangle;html=1;whiteSpace=wrap;connectable=0;overflow=hidden;fillColor=none;top=0;left=0;bottom=0;right=0;pointerEvents=1;strokeColor=#FFD966;align=left;" parent="XXJnfLqn3RMoecripVSo-165" vertex="1">
                    <mxGeometry x="38" width="212" height="30" as="geometry">
                        <mxRectangle width="180" height="30" as="alternateBounds"/>
                    </mxGeometry>
                </mxCell>
                <mxCell id="XXJnfLqn3RMoecripVSo-168" value="" style="shape=partialRectangle;html=1;whiteSpace=wrap;connectable=0;overflow=hidden;fillColor=none;top=0;left=0;bottom=0;right=0;pointerEvents=1;strokeColor=#FFD966;" parent="XXJnfLqn3RMoecripVSo-165" vertex="1">
                    <mxGeometry x="250" width="60" height="30" as="geometry">
                        <mxRectangle width="50" height="30" as="alternateBounds"/>
                    </mxGeometry>
                </mxCell>
                <mxCell id="XXJnfLqn3RMoecripVSo-169" value="" style="shape=partialRectangle;html=1;whiteSpace=wrap;connectable=0;overflow=hidden;fillColor=none;top=0;left=0;bottom=0;right=0;pointerEvents=1;strokeColor=#FFD966;" parent="XXJnfLqn3RMoecripVSo-165" vertex="1">
                    <mxGeometry x="310" width="40" height="30" as="geometry">
                        <mxRectangle width="30" height="30" as="alternateBounds"/>
                    </mxGeometry>
                </mxCell>
                <mxCell id="XXJnfLqn3RMoecripVSo-170" value="" style="shape=partialRectangle;html=1;whiteSpace=wrap;connectable=0;overflow=hidden;fillColor=none;top=0;left=0;bottom=0;right=0;pointerEvents=1;strokeColor=#FFD966;" parent="XXJnfLqn3RMoecripVSo-165" vertex="1">
                    <mxGeometry x="350" width="90" height="30" as="geometry">
                        <mxRectangle width="60" height="30" as="alternateBounds"/>
                    </mxGeometry>
                </mxCell>
                <mxCell id="XXJnfLqn3RMoecripVSo-171" style="shape=partialRectangle;collapsible=0;dropTarget=0;pointerEvents=0;fillColor=none;top=0;left=0;bottom=0;right=0;points=[[0,0.5],[1,0.5]];portConstraint=eastwest;strokeColor=#FFD966;" parent="XXJnfLqn3RMoecripVSo-140" vertex="1">
                    <mxGeometry y="180" width="440" height="30" as="geometry"/>
                </mxCell>
                <mxCell id="XXJnfLqn3RMoecripVSo-172" value="6" style="shape=partialRectangle;html=1;whiteSpace=wrap;connectable=0;overflow=hidden;fillColor=none;top=0;left=0;bottom=0;right=0;pointerEvents=1;strokeColor=#FFD966;" parent="XXJnfLqn3RMoecripVSo-171" vertex="1">
                    <mxGeometry width="38" height="30" as="geometry">
                        <mxRectangle width="30" height="30" as="alternateBounds"/>
                    </mxGeometry>
                </mxCell>
                <mxCell id="XXJnfLqn3RMoecripVSo-173" value="image_url" style="shape=partialRectangle;html=1;whiteSpace=wrap;connectable=0;overflow=hidden;fillColor=none;top=0;left=0;bottom=0;right=0;pointerEvents=1;strokeColor=#FFD966;align=left;" parent="XXJnfLqn3RMoecripVSo-171" vertex="1">
                    <mxGeometry x="38" width="212" height="30" as="geometry">
                        <mxRectangle width="180" height="30" as="alternateBounds"/>
                    </mxGeometry>
                </mxCell>
                <mxCell id="XXJnfLqn3RMoecripVSo-174" style="shape=partialRectangle;html=1;whiteSpace=wrap;connectable=0;overflow=hidden;fillColor=none;top=0;left=0;bottom=0;right=0;pointerEvents=1;strokeColor=#FFD966;" parent="XXJnfLqn3RMoecripVSo-171" vertex="1">
                    <mxGeometry x="250" width="60" height="30" as="geometry">
                        <mxRectangle width="50" height="30" as="alternateBounds"/>
                    </mxGeometry>
                </mxCell>
                <mxCell id="XXJnfLqn3RMoecripVSo-175" style="shape=partialRectangle;html=1;whiteSpace=wrap;connectable=0;overflow=hidden;fillColor=none;top=0;left=0;bottom=0;right=0;pointerEvents=1;strokeColor=#FFD966;" parent="XXJnfLqn3RMoecripVSo-171" vertex="1">
                    <mxGeometry x="310" width="40" height="30" as="geometry">
                        <mxRectangle width="30" height="30" as="alternateBounds"/>
                    </mxGeometry>
                </mxCell>
                <mxCell id="XXJnfLqn3RMoecripVSo-176" style="shape=partialRectangle;html=1;whiteSpace=wrap;connectable=0;overflow=hidden;fillColor=none;top=0;left=0;bottom=0;right=0;pointerEvents=1;strokeColor=#FFD966;" parent="XXJnfLqn3RMoecripVSo-171" vertex="1">
                    <mxGeometry x="350" width="90" height="30" as="geometry">
                        <mxRectangle width="60" height="30" as="alternateBounds"/>
                    </mxGeometry>
                </mxCell>
                <mxCell id="XXJnfLqn3RMoecripVSo-177" style="shape=partialRectangle;collapsible=0;dropTarget=0;pointerEvents=0;fillColor=none;top=0;left=0;bottom=0;right=0;points=[[0,0.5],[1,0.5]];portConstraint=eastwest;strokeColor=#FFD966;" parent="XXJnfLqn3RMoecripVSo-140" vertex="1">
                    <mxGeometry y="210" width="440" height="30" as="geometry"/>
                </mxCell>
                <mxCell id="XXJnfLqn3RMoecripVSo-178" value="7" style="shape=partialRectangle;html=1;whiteSpace=wrap;connectable=0;overflow=hidden;fillColor=none;top=0;left=0;bottom=0;right=0;pointerEvents=1;strokeColor=#FFD966;" parent="XXJnfLqn3RMoecripVSo-177" vertex="1">
                    <mxGeometry width="38" height="30" as="geometry">
                        <mxRectangle width="30" height="30" as="alternateBounds"/>
                    </mxGeometry>
                </mxCell>
                <mxCell id="XXJnfLqn3RMoecripVSo-179" value="item_name" style="shape=partialRectangle;html=1;whiteSpace=wrap;connectable=0;overflow=hidden;fillColor=none;top=0;left=0;bottom=0;right=0;pointerEvents=1;strokeColor=#FFD966;align=left;" parent="XXJnfLqn3RMoecripVSo-177" vertex="1">
                    <mxGeometry x="38" width="212" height="30" as="geometry">
                        <mxRectangle width="180" height="30" as="alternateBounds"/>
                    </mxGeometry>
                </mxCell>
                <mxCell id="XXJnfLqn3RMoecripVSo-180" style="shape=partialRectangle;html=1;whiteSpace=wrap;connectable=0;overflow=hidden;fillColor=none;top=0;left=0;bottom=0;right=0;pointerEvents=1;strokeColor=#FFD966;" parent="XXJnfLqn3RMoecripVSo-177" vertex="1">
                    <mxGeometry x="250" width="60" height="30" as="geometry">
                        <mxRectangle width="50" height="30" as="alternateBounds"/>
                    </mxGeometry>
                </mxCell>
                <mxCell id="XXJnfLqn3RMoecripVSo-181" style="shape=partialRectangle;html=1;whiteSpace=wrap;connectable=0;overflow=hidden;fillColor=none;top=0;left=0;bottom=0;right=0;pointerEvents=1;strokeColor=#FFD966;" parent="XXJnfLqn3RMoecripVSo-177" vertex="1">
                    <mxGeometry x="310" width="40" height="30" as="geometry">
                        <mxRectangle width="30" height="30" as="alternateBounds"/>
                    </mxGeometry>
                </mxCell>
                <mxCell id="XXJnfLqn3RMoecripVSo-182" style="shape=partialRectangle;html=1;whiteSpace=wrap;connectable=0;overflow=hidden;fillColor=none;top=0;left=0;bottom=0;right=0;pointerEvents=1;strokeColor=#FFD966;" parent="XXJnfLqn3RMoecripVSo-177" vertex="1">
                    <mxGeometry x="350" width="90" height="30" as="geometry">
                        <mxRectangle width="60" height="30" as="alternateBounds"/>
                    </mxGeometry>
                </mxCell>
                <mxCell id="XXJnfLqn3RMoecripVSo-183" style="shape=partialRectangle;collapsible=0;dropTarget=0;pointerEvents=0;fillColor=none;top=0;left=0;bottom=0;right=0;points=[[0,0.5],[1,0.5]];portConstraint=eastwest;strokeColor=#FFD966;" parent="XXJnfLqn3RMoecripVSo-140" vertex="1">
                    <mxGeometry y="240" width="440" height="30" as="geometry"/>
                </mxCell>
                <mxCell id="XXJnfLqn3RMoecripVSo-184" value="8" style="shape=partialRectangle;html=1;whiteSpace=wrap;connectable=0;overflow=hidden;fillColor=none;top=0;left=0;bottom=0;right=0;pointerEvents=1;strokeColor=#FFD966;" parent="XXJnfLqn3RMoecripVSo-183" vertex="1">
                    <mxGeometry width="38" height="30" as="geometry">
                        <mxRectangle width="30" height="30" as="alternateBounds"/>
                    </mxGeometry>
                </mxCell>
                <mxCell id="XXJnfLqn3RMoecripVSo-185" value="item_category" style="shape=partialRectangle;html=1;whiteSpace=wrap;connectable=0;overflow=hidden;fillColor=none;top=0;left=0;bottom=0;right=0;pointerEvents=1;strokeColor=#FFD966;align=left;" parent="XXJnfLqn3RMoecripVSo-183" vertex="1">
                    <mxGeometry x="38" width="212" height="30" as="geometry">
                        <mxRectangle width="180" height="30" as="alternateBounds"/>
                    </mxGeometry>
                </mxCell>
                <mxCell id="XXJnfLqn3RMoecripVSo-186" style="shape=partialRectangle;html=1;whiteSpace=wrap;connectable=0;overflow=hidden;fillColor=none;top=0;left=0;bottom=0;right=0;pointerEvents=1;strokeColor=#FFD966;" parent="XXJnfLqn3RMoecripVSo-183" vertex="1">
                    <mxGeometry x="250" width="60" height="30" as="geometry">
                        <mxRectangle width="50" height="30" as="alternateBounds"/>
                    </mxGeometry>
                </mxCell>
                <mxCell id="XXJnfLqn3RMoecripVSo-187" style="shape=partialRectangle;html=1;whiteSpace=wrap;connectable=0;overflow=hidden;fillColor=none;top=0;left=0;bottom=0;right=0;pointerEvents=1;strokeColor=#FFD966;" parent="XXJnfLqn3RMoecripVSo-183" vertex="1">
                    <mxGeometry x="310" width="40" height="30" as="geometry">
                        <mxRectangle width="30" height="30" as="alternateBounds"/>
                    </mxGeometry>
                </mxCell>
                <mxCell id="XXJnfLqn3RMoecripVSo-188" style="shape=partialRectangle;html=1;whiteSpace=wrap;connectable=0;overflow=hidden;fillColor=none;top=0;left=0;bottom=0;right=0;pointerEvents=1;strokeColor=#FFD966;" parent="XXJnfLqn3RMoecripVSo-183" vertex="1">
                    <mxGeometry x="350" width="90" height="30" as="geometry">
                        <mxRectangle width="60" height="30" as="alternateBounds"/>
                    </mxGeometry>
                </mxCell>
                <mxCell id="XXJnfLqn3RMoecripVSo-189" style="shape=partialRectangle;collapsible=0;dropTarget=0;pointerEvents=0;fillColor=none;top=0;left=0;bottom=0;right=0;points=[[0,0.5],[1,0.5]];portConstraint=eastwest;strokeColor=#FFD966;" parent="XXJnfLqn3RMoecripVSo-140" vertex="1">
                    <mxGeometry y="270" width="440" height="30" as="geometry"/>
                </mxCell>
                <mxCell id="XXJnfLqn3RMoecripVSo-190" value="9" style="shape=partialRectangle;html=1;whiteSpace=wrap;connectable=0;overflow=hidden;fillColor=none;top=0;left=0;bottom=0;right=0;pointerEvents=1;strokeColor=#FFD966;" parent="XXJnfLqn3RMoecripVSo-189" vertex="1">
                    <mxGeometry width="38" height="30" as="geometry">
                        <mxRectangle width="30" height="30" as="alternateBounds"/>
                    </mxGeometry>
                </mxCell>
                <mxCell id="XXJnfLqn3RMoecripVSo-191" value="Item_description" style="shape=partialRectangle;html=1;whiteSpace=wrap;connectable=0;overflow=hidden;fillColor=none;top=0;left=0;bottom=0;right=0;pointerEvents=1;strokeColor=#FFD966;align=left;" parent="XXJnfLqn3RMoecripVSo-189" vertex="1">
                    <mxGeometry x="38" width="212" height="30" as="geometry">
                        <mxRectangle width="180" height="30" as="alternateBounds"/>
                    </mxGeometry>
                </mxCell>
                <mxCell id="XXJnfLqn3RMoecripVSo-192" style="shape=partialRectangle;html=1;whiteSpace=wrap;connectable=0;overflow=hidden;fillColor=none;top=0;left=0;bottom=0;right=0;pointerEvents=1;strokeColor=#FFD966;" parent="XXJnfLqn3RMoecripVSo-189" vertex="1">
                    <mxGeometry x="250" width="60" height="30" as="geometry">
                        <mxRectangle width="50" height="30" as="alternateBounds"/>
                    </mxGeometry>
                </mxCell>
                <mxCell id="XXJnfLqn3RMoecripVSo-193" style="shape=partialRectangle;html=1;whiteSpace=wrap;connectable=0;overflow=hidden;fillColor=none;top=0;left=0;bottom=0;right=0;pointerEvents=1;strokeColor=#FFD966;" parent="XXJnfLqn3RMoecripVSo-189" vertex="1">
                    <mxGeometry x="310" width="40" height="30" as="geometry">
                        <mxRectangle width="30" height="30" as="alternateBounds"/>
                    </mxGeometry>
                </mxCell>
                <mxCell id="XXJnfLqn3RMoecripVSo-194" style="shape=partialRectangle;html=1;whiteSpace=wrap;connectable=0;overflow=hidden;fillColor=none;top=0;left=0;bottom=0;right=0;pointerEvents=1;strokeColor=#FFD966;" parent="XXJnfLqn3RMoecripVSo-189" vertex="1">
                    <mxGeometry x="350" width="90" height="30" as="geometry">
                        <mxRectangle width="60" height="30" as="alternateBounds"/>
                    </mxGeometry>
                </mxCell>
                <mxCell id="XXJnfLqn3RMoecripVSo-195" style="shape=partialRectangle;collapsible=0;dropTarget=0;pointerEvents=0;fillColor=none;top=0;left=0;bottom=0;right=0;points=[[0,0.5],[1,0.5]];portConstraint=eastwest;strokeColor=#FFD966;" parent="XXJnfLqn3RMoecripVSo-140" vertex="1">
                    <mxGeometry y="300" width="440" height="30" as="geometry"/>
                </mxCell>
                <mxCell id="XXJnfLqn3RMoecripVSo-196" value="10" style="shape=partialRectangle;html=1;whiteSpace=wrap;connectable=0;overflow=hidden;fillColor=none;top=0;left=0;bottom=0;right=0;pointerEvents=1;strokeColor=#FFD966;" parent="XXJnfLqn3RMoecripVSo-195" vertex="1">
                    <mxGeometry width="38" height="30" as="geometry">
                        <mxRectangle width="30" height="30" as="alternateBounds"/>
                    </mxGeometry>
                </mxCell>
                <mxCell id="XXJnfLqn3RMoecripVSo-197" value="item_collection" style="shape=partialRectangle;html=1;whiteSpace=wrap;connectable=0;overflow=hidden;fillColor=none;top=0;left=0;bottom=0;right=0;pointerEvents=1;strokeColor=#FFD966;align=left;" parent="XXJnfLqn3RMoecripVSo-195" vertex="1">
                    <mxGeometry x="38" width="212" height="30" as="geometry">
                        <mxRectangle width="180" height="30" as="alternateBounds"/>
                    </mxGeometry>
                </mxCell>
                <mxCell id="XXJnfLqn3RMoecripVSo-198" style="shape=partialRectangle;html=1;whiteSpace=wrap;connectable=0;overflow=hidden;fillColor=none;top=0;left=0;bottom=0;right=0;pointerEvents=1;strokeColor=#FFD966;" parent="XXJnfLqn3RMoecripVSo-195" vertex="1">
                    <mxGeometry x="250" width="60" height="30" as="geometry">
                        <mxRectangle width="50" height="30" as="alternateBounds"/>
                    </mxGeometry>
                </mxCell>
                <mxCell id="XXJnfLqn3RMoecripVSo-199" style="shape=partialRectangle;html=1;whiteSpace=wrap;connectable=0;overflow=hidden;fillColor=none;top=0;left=0;bottom=0;right=0;pointerEvents=1;strokeColor=#FFD966;" parent="XXJnfLqn3RMoecripVSo-195" vertex="1">
                    <mxGeometry x="310" width="40" height="30" as="geometry">
                        <mxRectangle width="30" height="30" as="alternateBounds"/>
                    </mxGeometry>
                </mxCell>
                <mxCell id="XXJnfLqn3RMoecripVSo-200" style="shape=partialRectangle;html=1;whiteSpace=wrap;connectable=0;overflow=hidden;fillColor=none;top=0;left=0;bottom=0;right=0;pointerEvents=1;strokeColor=#FFD966;" parent="XXJnfLqn3RMoecripVSo-195" vertex="1">
                    <mxGeometry x="350" width="90" height="30" as="geometry">
                        <mxRectangle width="60" height="30" as="alternateBounds"/>
                    </mxGeometry>
                </mxCell>
                <mxCell id="XXJnfLqn3RMoecripVSo-201" style="shape=partialRectangle;collapsible=0;dropTarget=0;pointerEvents=0;fillColor=none;top=0;left=0;bottom=0;right=0;points=[[0,0.5],[1,0.5]];portConstraint=eastwest;strokeColor=#FFD966;" parent="XXJnfLqn3RMoecripVSo-140" vertex="1">
                    <mxGeometry y="330" width="440" height="30" as="geometry"/>
                </mxCell>
                <mxCell id="XXJnfLqn3RMoecripVSo-202" value="11" style="shape=partialRectangle;html=1;whiteSpace=wrap;connectable=0;overflow=hidden;fillColor=none;top=0;left=0;bottom=0;right=0;pointerEvents=1;strokeColor=#FFD966;" parent="XXJnfLqn3RMoecripVSo-201" vertex="1">
                    <mxGeometry width="38" height="30" as="geometry">
                        <mxRectangle width="30" height="30" as="alternateBounds"/>
                    </mxGeometry>
                </mxCell>
                <mxCell id="XXJnfLqn3RMoecripVSo-203" value="item_royaltied" style="shape=partialRectangle;html=1;whiteSpace=wrap;connectable=0;overflow=hidden;fillColor=none;top=0;left=0;bottom=0;right=0;pointerEvents=1;strokeColor=#FFD966;align=left;" parent="XXJnfLqn3RMoecripVSo-201" vertex="1">
                    <mxGeometry x="38" width="212" height="30" as="geometry">
                        <mxRectangle width="180" height="30" as="alternateBounds"/>
                    </mxGeometry>
                </mxCell>
                <mxCell id="XXJnfLqn3RMoecripVSo-204" style="shape=partialRectangle;html=1;whiteSpace=wrap;connectable=0;overflow=hidden;fillColor=none;top=0;left=0;bottom=0;right=0;pointerEvents=1;strokeColor=#FFD966;" parent="XXJnfLqn3RMoecripVSo-201" vertex="1">
                    <mxGeometry x="250" width="60" height="30" as="geometry">
                        <mxRectangle width="50" height="30" as="alternateBounds"/>
                    </mxGeometry>
                </mxCell>
                <mxCell id="XXJnfLqn3RMoecripVSo-205" style="shape=partialRectangle;html=1;whiteSpace=wrap;connectable=0;overflow=hidden;fillColor=none;top=0;left=0;bottom=0;right=0;pointerEvents=1;strokeColor=#FFD966;" parent="XXJnfLqn3RMoecripVSo-201" vertex="1">
                    <mxGeometry x="310" width="40" height="30" as="geometry">
                        <mxRectangle width="30" height="30" as="alternateBounds"/>
                    </mxGeometry>
                </mxCell>
                <mxCell id="XXJnfLqn3RMoecripVSo-206" style="shape=partialRectangle;html=1;whiteSpace=wrap;connectable=0;overflow=hidden;fillColor=none;top=0;left=0;bottom=0;right=0;pointerEvents=1;strokeColor=#FFD966;" parent="XXJnfLqn3RMoecripVSo-201" vertex="1">
                    <mxGeometry x="350" width="90" height="30" as="geometry">
                        <mxRectangle width="60" height="30" as="alternateBounds"/>
                    </mxGeometry>
                </mxCell>
                <mxCell id="XXJnfLqn3RMoecripVSo-207" style="shape=partialRectangle;collapsible=0;dropTarget=0;pointerEvents=0;fillColor=none;top=0;left=0;bottom=0;right=0;points=[[0,0.5],[1,0.5]];portConstraint=eastwest;strokeColor=#FFD966;" parent="XXJnfLqn3RMoecripVSo-140" vertex="1">
                    <mxGeometry y="360" width="440" height="30" as="geometry"/>
                </mxCell>
                <mxCell id="XXJnfLqn3RMoecripVSo-208" value="12" style="shape=partialRectangle;html=1;whiteSpace=wrap;connectable=0;overflow=hidden;fillColor=none;top=0;left=0;bottom=0;right=0;pointerEvents=1;strokeColor=#FFD966;" parent="XXJnfLqn3RMoecripVSo-207" vertex="1">
                    <mxGeometry width="38" height="30" as="geometry">
                        <mxRectangle width="30" height="30" as="alternateBounds"/>
                    </mxGeometry>
                </mxCell>
                <mxCell id="XXJnfLqn3RMoecripVSo-209" value="item_price" style="shape=partialRectangle;html=1;whiteSpace=wrap;connectable=0;overflow=hidden;fillColor=none;top=0;left=0;bottom=0;right=0;pointerEvents=1;strokeColor=#FFD966;align=left;" parent="XXJnfLqn3RMoecripVSo-207" vertex="1">
                    <mxGeometry x="38" width="212" height="30" as="geometry">
                        <mxRectangle width="180" height="30" as="alternateBounds"/>
                    </mxGeometry>
                </mxCell>
                <mxCell id="XXJnfLqn3RMoecripVSo-210" style="shape=partialRectangle;html=1;whiteSpace=wrap;connectable=0;overflow=hidden;fillColor=none;top=0;left=0;bottom=0;right=0;pointerEvents=1;strokeColor=#FFD966;" parent="XXJnfLqn3RMoecripVSo-207" vertex="1">
                    <mxGeometry x="250" width="60" height="30" as="geometry">
                        <mxRectangle width="50" height="30" as="alternateBounds"/>
                    </mxGeometry>
                </mxCell>
                <mxCell id="XXJnfLqn3RMoecripVSo-211" style="shape=partialRectangle;html=1;whiteSpace=wrap;connectable=0;overflow=hidden;fillColor=none;top=0;left=0;bottom=0;right=0;pointerEvents=1;strokeColor=#FFD966;" parent="XXJnfLqn3RMoecripVSo-207" vertex="1">
                    <mxGeometry x="310" width="40" height="30" as="geometry">
                        <mxRectangle width="30" height="30" as="alternateBounds"/>
                    </mxGeometry>
                </mxCell>
                <mxCell id="XXJnfLqn3RMoecripVSo-212" style="shape=partialRectangle;html=1;whiteSpace=wrap;connectable=0;overflow=hidden;fillColor=none;top=0;left=0;bottom=0;right=0;pointerEvents=1;strokeColor=#FFD966;" parent="XXJnfLqn3RMoecripVSo-207" vertex="1">
                    <mxGeometry x="350" width="90" height="30" as="geometry">
                        <mxRectangle width="60" height="30" as="alternateBounds"/>
                    </mxGeometry>
                </mxCell>
                <mxCell id="XXJnfLqn3RMoecripVSo-213" style="shape=partialRectangle;collapsible=0;dropTarget=0;pointerEvents=0;fillColor=none;top=0;left=0;bottom=0;right=0;points=[[0,0.5],[1,0.5]];portConstraint=eastwest;strokeColor=#FFD966;" parent="XXJnfLqn3RMoecripVSo-140" vertex="1">
                    <mxGeometry y="390" width="440" height="30" as="geometry"/>
                </mxCell>
                <mxCell id="XXJnfLqn3RMoecripVSo-214" value="13" style="shape=partialRectangle;html=1;whiteSpace=wrap;connectable=0;overflow=hidden;fillColor=none;top=0;left=0;bottom=0;right=0;pointerEvents=1;strokeColor=#FFD966;" parent="XXJnfLqn3RMoecripVSo-213" vertex="1">
                    <mxGeometry width="38" height="30" as="geometry">
                        <mxRectangle width="30" height="30" as="alternateBounds"/>
                    </mxGeometry>
                </mxCell>
                <mxCell id="XXJnfLqn3RMoecripVSo-215" value="asset_contract" style="shape=partialRectangle;html=1;whiteSpace=wrap;connectable=0;overflow=hidden;fillColor=none;top=0;left=0;bottom=0;right=0;pointerEvents=1;strokeColor=#FFD966;align=left;" parent="XXJnfLqn3RMoecripVSo-213" vertex="1">
                    <mxGeometry x="38" width="212" height="30" as="geometry">
                        <mxRectangle width="180" height="30" as="alternateBounds"/>
                    </mxGeometry>
                </mxCell>
                <mxCell id="XXJnfLqn3RMoecripVSo-216" style="shape=partialRectangle;html=1;whiteSpace=wrap;connectable=0;overflow=hidden;fillColor=none;top=0;left=0;bottom=0;right=0;pointerEvents=1;strokeColor=#FFD966;" parent="XXJnfLqn3RMoecripVSo-213" vertex="1">
                    <mxGeometry x="250" width="60" height="30" as="geometry">
                        <mxRectangle width="50" height="30" as="alternateBounds"/>
                    </mxGeometry>
                </mxCell>
                <mxCell id="XXJnfLqn3RMoecripVSo-217" style="shape=partialRectangle;html=1;whiteSpace=wrap;connectable=0;overflow=hidden;fillColor=none;top=0;left=0;bottom=0;right=0;pointerEvents=1;strokeColor=#FFD966;" parent="XXJnfLqn3RMoecripVSo-213" vertex="1">
                    <mxGeometry x="310" width="40" height="30" as="geometry">
                        <mxRectangle width="30" height="30" as="alternateBounds"/>
                    </mxGeometry>
                </mxCell>
                <mxCell id="XXJnfLqn3RMoecripVSo-218" style="shape=partialRectangle;html=1;whiteSpace=wrap;connectable=0;overflow=hidden;fillColor=none;top=0;left=0;bottom=0;right=0;pointerEvents=1;strokeColor=#FFD966;" parent="XXJnfLqn3RMoecripVSo-213" vertex="1">
                    <mxGeometry x="350" width="90" height="30" as="geometry">
                        <mxRectangle width="60" height="30" as="alternateBounds"/>
                    </mxGeometry>
                </mxCell>
                <mxCell id="XXJnfLqn3RMoecripVSo-219" style="shape=partialRectangle;collapsible=0;dropTarget=0;pointerEvents=0;fillColor=none;top=0;left=0;bottom=0;right=0;points=[[0,0.5],[1,0.5]];portConstraint=eastwest;strokeColor=#FFD966;" parent="XXJnfLqn3RMoecripVSo-140" vertex="1">
                    <mxGeometry y="420" width="440" height="30" as="geometry"/>
                </mxCell>
                <mxCell id="XXJnfLqn3RMoecripVSo-220" value="14" style="shape=partialRectangle;html=1;whiteSpace=wrap;connectable=0;overflow=hidden;fillColor=none;top=0;left=0;bottom=0;right=0;pointerEvents=1;strokeColor=#FFD966;" parent="XXJnfLqn3RMoecripVSo-219" vertex="1">
                    <mxGeometry width="38" height="30" as="geometry">
                        <mxRectangle width="30" height="30" as="alternateBounds"/>
                    </mxGeometry>
                </mxCell>
                <mxCell id="XXJnfLqn3RMoecripVSo-221" value="asset_contract.address" style="shape=partialRectangle;html=1;whiteSpace=wrap;connectable=0;overflow=hidden;fillColor=none;top=0;left=0;bottom=0;right=0;pointerEvents=1;strokeColor=#FFD966;align=left;" parent="XXJnfLqn3RMoecripVSo-219" vertex="1">
                    <mxGeometry x="38" width="212" height="30" as="geometry">
                        <mxRectangle width="180" height="30" as="alternateBounds"/>
                    </mxGeometry>
                </mxCell>
                <mxCell id="XXJnfLqn3RMoecripVSo-222" style="shape=partialRectangle;html=1;whiteSpace=wrap;connectable=0;overflow=hidden;fillColor=none;top=0;left=0;bottom=0;right=0;pointerEvents=1;strokeColor=#FFD966;" parent="XXJnfLqn3RMoecripVSo-219" vertex="1">
                    <mxGeometry x="250" width="60" height="30" as="geometry">
                        <mxRectangle width="50" height="30" as="alternateBounds"/>
                    </mxGeometry>
                </mxCell>
                <mxCell id="XXJnfLqn3RMoecripVSo-223" style="shape=partialRectangle;html=1;whiteSpace=wrap;connectable=0;overflow=hidden;fillColor=none;top=0;left=0;bottom=0;right=0;pointerEvents=1;strokeColor=#FFD966;" parent="XXJnfLqn3RMoecripVSo-219" vertex="1">
                    <mxGeometry x="310" width="40" height="30" as="geometry">
                        <mxRectangle width="30" height="30" as="alternateBounds"/>
                    </mxGeometry>
                </mxCell>
                <mxCell id="XXJnfLqn3RMoecripVSo-224" style="shape=partialRectangle;html=1;whiteSpace=wrap;connectable=0;overflow=hidden;fillColor=none;top=0;left=0;bottom=0;right=0;pointerEvents=1;strokeColor=#FFD966;" parent="XXJnfLqn3RMoecripVSo-219" vertex="1">
                    <mxGeometry x="350" width="90" height="30" as="geometry">
                        <mxRectangle width="60" height="30" as="alternateBounds"/>
                    </mxGeometry>
                </mxCell>
                <mxCell id="XXJnfLqn3RMoecripVSo-225" style="shape=partialRectangle;collapsible=0;dropTarget=0;pointerEvents=0;fillColor=none;top=0;left=0;bottom=0;right=0;points=[[0,0.5],[1,0.5]];portConstraint=eastwest;strokeColor=#FFD966;" parent="XXJnfLqn3RMoecripVSo-140" vertex="1">
                    <mxGeometry y="450" width="440" height="30" as="geometry"/>
                </mxCell>
                <mxCell id="XXJnfLqn3RMoecripVSo-226" value="15" style="shape=partialRectangle;html=1;whiteSpace=wrap;connectable=0;overflow=hidden;fillColor=none;top=0;left=0;bottom=0;right=0;pointerEvents=1;strokeColor=#FFD966;" parent="XXJnfLqn3RMoecripVSo-225" vertex="1">
                    <mxGeometry width="38" height="30" as="geometry">
                        <mxRectangle width="30" height="30" as="alternateBounds"/>
                    </mxGeometry>
                </mxCell>
                <mxCell id="XXJnfLqn3RMoecripVSo-227" value="asset_contract.contract_type" style="shape=partialRectangle;html=1;whiteSpace=wrap;connectable=0;overflow=hidden;fillColor=none;top=0;left=0;bottom=0;right=0;pointerEvents=1;strokeColor=#FFD966;align=left;" parent="XXJnfLqn3RMoecripVSo-225" vertex="1">
                    <mxGeometry x="38" width="212" height="30" as="geometry">
                        <mxRectangle width="180" height="30" as="alternateBounds"/>
                    </mxGeometry>
                </mxCell>
                <mxCell id="XXJnfLqn3RMoecripVSo-228" style="shape=partialRectangle;html=1;whiteSpace=wrap;connectable=0;overflow=hidden;fillColor=none;top=0;left=0;bottom=0;right=0;pointerEvents=1;strokeColor=#FFD966;" parent="XXJnfLqn3RMoecripVSo-225" vertex="1">
                    <mxGeometry x="250" width="60" height="30" as="geometry">
                        <mxRectangle width="50" height="30" as="alternateBounds"/>
                    </mxGeometry>
                </mxCell>
                <mxCell id="XXJnfLqn3RMoecripVSo-229" style="shape=partialRectangle;html=1;whiteSpace=wrap;connectable=0;overflow=hidden;fillColor=none;top=0;left=0;bottom=0;right=0;pointerEvents=1;strokeColor=#FFD966;" parent="XXJnfLqn3RMoecripVSo-225" vertex="1">
                    <mxGeometry x="310" width="40" height="30" as="geometry">
                        <mxRectangle width="30" height="30" as="alternateBounds"/>
                    </mxGeometry>
                </mxCell>
                <mxCell id="XXJnfLqn3RMoecripVSo-230" style="shape=partialRectangle;html=1;whiteSpace=wrap;connectable=0;overflow=hidden;fillColor=none;top=0;left=0;bottom=0;right=0;pointerEvents=1;strokeColor=#FFD966;" parent="XXJnfLqn3RMoecripVSo-225" vertex="1">
                    <mxGeometry x="350" width="90" height="30" as="geometry">
                        <mxRectangle width="60" height="30" as="alternateBounds"/>
                    </mxGeometry>
                </mxCell>
                <mxCell id="XXJnfLqn3RMoecripVSo-231" style="shape=partialRectangle;collapsible=0;dropTarget=0;pointerEvents=0;fillColor=none;top=0;left=0;bottom=0;right=0;points=[[0,0.5],[1,0.5]];portConstraint=eastwest;strokeColor=#FFD966;" parent="XXJnfLqn3RMoecripVSo-140" vertex="1">
                    <mxGeometry y="480" width="440" height="30" as="geometry"/>
                </mxCell>
                <mxCell id="XXJnfLqn3RMoecripVSo-232" value="16" style="shape=partialRectangle;html=1;whiteSpace=wrap;connectable=0;overflow=hidden;fillColor=none;top=0;left=0;bottom=0;right=0;pointerEvents=1;strokeColor=#FFD966;" parent="XXJnfLqn3RMoecripVSo-231" vertex="1">
                    <mxGeometry width="38" height="30" as="geometry">
                        <mxRectangle width="30" height="30" as="alternateBounds"/>
                    </mxGeometry>
                </mxCell>
                <mxCell id="XXJnfLqn3RMoecripVSo-233" value="asset_contract_owner" style="shape=partialRectangle;html=1;whiteSpace=wrap;connectable=0;overflow=hidden;fillColor=none;top=0;left=0;bottom=0;right=0;pointerEvents=1;strokeColor=#FFD966;align=left;" parent="XXJnfLqn3RMoecripVSo-231" vertex="1">
                    <mxGeometry x="38" width="212" height="30" as="geometry">
                        <mxRectangle width="180" height="30" as="alternateBounds"/>
                    </mxGeometry>
                </mxCell>
                <mxCell id="XXJnfLqn3RMoecripVSo-234" style="shape=partialRectangle;html=1;whiteSpace=wrap;connectable=0;overflow=hidden;fillColor=none;top=0;left=0;bottom=0;right=0;pointerEvents=1;strokeColor=#FFD966;" parent="XXJnfLqn3RMoecripVSo-231" vertex="1">
                    <mxGeometry x="250" width="60" height="30" as="geometry">
                        <mxRectangle width="50" height="30" as="alternateBounds"/>
                    </mxGeometry>
                </mxCell>
                <mxCell id="XXJnfLqn3RMoecripVSo-235" style="shape=partialRectangle;html=1;whiteSpace=wrap;connectable=0;overflow=hidden;fillColor=none;top=0;left=0;bottom=0;right=0;pointerEvents=1;strokeColor=#FFD966;" parent="XXJnfLqn3RMoecripVSo-231" vertex="1">
                    <mxGeometry x="310" width="40" height="30" as="geometry">
                        <mxRectangle width="30" height="30" as="alternateBounds"/>
                    </mxGeometry>
                </mxCell>
                <mxCell id="XXJnfLqn3RMoecripVSo-236" style="shape=partialRectangle;html=1;whiteSpace=wrap;connectable=0;overflow=hidden;fillColor=none;top=0;left=0;bottom=0;right=0;pointerEvents=1;strokeColor=#FFD966;" parent="XXJnfLqn3RMoecripVSo-231" vertex="1">
                    <mxGeometry x="350" width="90" height="30" as="geometry">
                        <mxRectangle width="60" height="30" as="alternateBounds"/>
                    </mxGeometry>
                </mxCell>
                <mxCell id="XXJnfLqn3RMoecripVSo-237" style="shape=partialRectangle;collapsible=0;dropTarget=0;pointerEvents=0;fillColor=none;top=0;left=0;bottom=0;right=0;points=[[0,0.5],[1,0.5]];portConstraint=eastwest;strokeColor=#FFD966;" parent="XXJnfLqn3RMoecripVSo-140" vertex="1">
                    <mxGeometry y="510" width="440" height="30" as="geometry"/>
                </mxCell>
                <mxCell id="XXJnfLqn3RMoecripVSo-238" value="17" style="shape=partialRectangle;html=1;whiteSpace=wrap;connectable=0;overflow=hidden;fillColor=none;top=0;left=0;bottom=0;right=0;pointerEvents=1;strokeColor=#FFD966;align=center;" parent="XXJnfLqn3RMoecripVSo-237" vertex="1">
                    <mxGeometry width="38" height="30" as="geometry">
                        <mxRectangle width="30" height="30" as="alternateBounds"/>
                    </mxGeometry>
                </mxCell>
                <mxCell id="XXJnfLqn3RMoecripVSo-239" value="asset_contract.create_date_time" style="shape=partialRectangle;html=1;whiteSpace=wrap;connectable=0;overflow=hidden;fillColor=none;top=0;left=0;bottom=0;right=0;pointerEvents=1;strokeColor=#FFD966;align=left;" parent="XXJnfLqn3RMoecripVSo-237" vertex="1">
                    <mxGeometry x="38" width="212" height="30" as="geometry">
                        <mxRectangle width="180" height="30" as="alternateBounds"/>
                    </mxGeometry>
                </mxCell>
                <mxCell id="XXJnfLqn3RMoecripVSo-240" style="shape=partialRectangle;html=1;whiteSpace=wrap;connectable=0;overflow=hidden;fillColor=none;top=0;left=0;bottom=0;right=0;pointerEvents=1;strokeColor=#FFD966;" parent="XXJnfLqn3RMoecripVSo-237" vertex="1">
                    <mxGeometry x="250" width="60" height="30" as="geometry">
                        <mxRectangle width="50" height="30" as="alternateBounds"/>
                    </mxGeometry>
                </mxCell>
                <mxCell id="XXJnfLqn3RMoecripVSo-241" style="shape=partialRectangle;html=1;whiteSpace=wrap;connectable=0;overflow=hidden;fillColor=none;top=0;left=0;bottom=0;right=0;pointerEvents=1;strokeColor=#FFD966;" parent="XXJnfLqn3RMoecripVSo-237" vertex="1">
                    <mxGeometry x="310" width="40" height="30" as="geometry">
                        <mxRectangle width="30" height="30" as="alternateBounds"/>
                    </mxGeometry>
                </mxCell>
                <mxCell id="XXJnfLqn3RMoecripVSo-242" style="shape=partialRectangle;html=1;whiteSpace=wrap;connectable=0;overflow=hidden;fillColor=none;top=0;left=0;bottom=0;right=0;pointerEvents=1;strokeColor=#FFD966;" parent="XXJnfLqn3RMoecripVSo-237" vertex="1">
                    <mxGeometry x="350" width="90" height="30" as="geometry">
                        <mxRectangle width="60" height="30" as="alternateBounds"/>
                    </mxGeometry>
                </mxCell>
                <mxCell id="XXJnfLqn3RMoecripVSo-243" style="shape=partialRectangle;collapsible=0;dropTarget=0;pointerEvents=0;fillColor=none;top=0;left=0;bottom=0;right=0;points=[[0,0.5],[1,0.5]];portConstraint=eastwest;strokeColor=#FFD966;" parent="XXJnfLqn3RMoecripVSo-140" vertex="1">
                    <mxGeometry y="540" width="440" height="30" as="geometry"/>
                </mxCell>
                <mxCell id="XXJnfLqn3RMoecripVSo-244" value="18" style="shape=partialRectangle;html=1;whiteSpace=wrap;connectable=0;overflow=hidden;fillColor=none;top=0;left=0;bottom=0;right=0;pointerEvents=1;strokeColor=#FFD966;align=center;" parent="XXJnfLqn3RMoecripVSo-243" vertex="1">
                    <mxGeometry width="38" height="30" as="geometry">
                        <mxRectangle width="30" height="30" as="alternateBounds"/>
                    </mxGeometry>
                </mxCell>
                <mxCell id="XXJnfLqn3RMoecripVSo-245" value="item_create_date_time" style="shape=partialRectangle;html=1;whiteSpace=wrap;connectable=0;overflow=hidden;fillColor=none;top=0;left=0;bottom=0;right=0;pointerEvents=1;strokeColor=#FFD966;align=left;" parent="XXJnfLqn3RMoecripVSo-243" vertex="1">
                    <mxGeometry x="38" width="212" height="30" as="geometry">
                        <mxRectangle width="180" height="30" as="alternateBounds"/>
                    </mxGeometry>
                </mxCell>
                <mxCell id="XXJnfLqn3RMoecripVSo-246" style="shape=partialRectangle;html=1;whiteSpace=wrap;connectable=0;overflow=hidden;fillColor=none;top=0;left=0;bottom=0;right=0;pointerEvents=1;strokeColor=#FFD966;" parent="XXJnfLqn3RMoecripVSo-243" vertex="1">
                    <mxGeometry x="250" width="60" height="30" as="geometry">
                        <mxRectangle width="50" height="30" as="alternateBounds"/>
                    </mxGeometry>
                </mxCell>
                <mxCell id="XXJnfLqn3RMoecripVSo-247" style="shape=partialRectangle;html=1;whiteSpace=wrap;connectable=0;overflow=hidden;fillColor=none;top=0;left=0;bottom=0;right=0;pointerEvents=1;strokeColor=#FFD966;" parent="XXJnfLqn3RMoecripVSo-243" vertex="1">
                    <mxGeometry x="310" width="40" height="30" as="geometry">
                        <mxRectangle width="30" height="30" as="alternateBounds"/>
                    </mxGeometry>
                </mxCell>
                <mxCell id="XXJnfLqn3RMoecripVSo-248" style="shape=partialRectangle;html=1;whiteSpace=wrap;connectable=0;overflow=hidden;fillColor=none;top=0;left=0;bottom=0;right=0;pointerEvents=1;strokeColor=#FFD966;" parent="XXJnfLqn3RMoecripVSo-243" vertex="1">
                    <mxGeometry x="350" width="90" height="30" as="geometry">
                        <mxRectangle width="60" height="30" as="alternateBounds"/>
                    </mxGeometry>
                </mxCell>
                <mxCell id="XXJnfLqn3RMoecripVSo-249" style="shape=partialRectangle;collapsible=0;dropTarget=0;pointerEvents=0;fillColor=none;top=0;left=0;bottom=0;right=0;points=[[0,0.5],[1,0.5]];portConstraint=eastwest;strokeColor=#FFD966;" parent="XXJnfLqn3RMoecripVSo-140" vertex="1">
                    <mxGeometry y="570" width="440" height="30" as="geometry"/>
                </mxCell>
                <mxCell id="XXJnfLqn3RMoecripVSo-250" value="19" style="shape=partialRectangle;html=1;whiteSpace=wrap;connectable=0;overflow=hidden;fillColor=none;top=0;left=0;bottom=0;right=0;pointerEvents=1;strokeColor=#FFD966;align=center;" parent="XXJnfLqn3RMoecripVSo-249" vertex="1">
                    <mxGeometry width="38" height="30" as="geometry">
                        <mxRectangle width="30" height="30" as="alternateBounds"/>
                    </mxGeometry>
                </mxCell>
                <mxCell id="XXJnfLqn3RMoecripVSo-251" value="last_sale" style="shape=partialRectangle;html=1;whiteSpace=wrap;connectable=0;overflow=hidden;fillColor=none;top=0;left=0;bottom=0;right=0;pointerEvents=1;strokeColor=#FFD966;align=left;" parent="XXJnfLqn3RMoecripVSo-249" vertex="1">
                    <mxGeometry x="38" width="212" height="30" as="geometry">
                        <mxRectangle width="180" height="30" as="alternateBounds"/>
                    </mxGeometry>
                </mxCell>
                <mxCell id="XXJnfLqn3RMoecripVSo-252" style="shape=partialRectangle;html=1;whiteSpace=wrap;connectable=0;overflow=hidden;fillColor=none;top=0;left=0;bottom=0;right=0;pointerEvents=1;strokeColor=#FFD966;" parent="XXJnfLqn3RMoecripVSo-249" vertex="1">
                    <mxGeometry x="250" width="60" height="30" as="geometry">
                        <mxRectangle width="50" height="30" as="alternateBounds"/>
                    </mxGeometry>
                </mxCell>
                <mxCell id="XXJnfLqn3RMoecripVSo-253" style="shape=partialRectangle;html=1;whiteSpace=wrap;connectable=0;overflow=hidden;fillColor=none;top=0;left=0;bottom=0;right=0;pointerEvents=1;strokeColor=#FFD966;" parent="XXJnfLqn3RMoecripVSo-249" vertex="1">
                    <mxGeometry x="310" width="40" height="30" as="geometry">
                        <mxRectangle width="30" height="30" as="alternateBounds"/>
                    </mxGeometry>
                </mxCell>
                <mxCell id="XXJnfLqn3RMoecripVSo-254" style="shape=partialRectangle;html=1;whiteSpace=wrap;connectable=0;overflow=hidden;fillColor=none;top=0;left=0;bottom=0;right=0;pointerEvents=1;strokeColor=#FFD966;" parent="XXJnfLqn3RMoecripVSo-249" vertex="1">
                    <mxGeometry x="350" width="90" height="30" as="geometry">
                        <mxRectangle width="60" height="30" as="alternateBounds"/>
                    </mxGeometry>
                </mxCell>
                <mxCell id="XXJnfLqn3RMoecripVSo-255" style="shape=partialRectangle;collapsible=0;dropTarget=0;pointerEvents=0;fillColor=none;top=0;left=0;bottom=0;right=0;points=[[0,0.5],[1,0.5]];portConstraint=eastwest;strokeColor=#FFD966;" parent="XXJnfLqn3RMoecripVSo-140" vertex="1">
                    <mxGeometry y="600" width="440" height="30" as="geometry"/>
                </mxCell>
                <mxCell id="XXJnfLqn3RMoecripVSo-256" value="20" style="shape=partialRectangle;html=1;whiteSpace=wrap;connectable=0;overflow=hidden;fillColor=none;top=0;left=0;bottom=0;right=0;pointerEvents=1;strokeColor=#FFD966;align=center;" parent="XXJnfLqn3RMoecripVSo-255" vertex="1">
                    <mxGeometry width="38" height="30" as="geometry">
                        <mxRectangle width="30" height="30" as="alternateBounds"/>
                    </mxGeometry>
                </mxCell>
                <mxCell id="XXJnfLqn3RMoecripVSo-257" value="is_sold" style="shape=partialRectangle;html=1;whiteSpace=wrap;connectable=0;overflow=hidden;fillColor=none;top=0;left=0;bottom=0;right=0;pointerEvents=1;strokeColor=#FFD966;align=left;" parent="XXJnfLqn3RMoecripVSo-255" vertex="1">
                    <mxGeometry x="38" width="212" height="30" as="geometry">
                        <mxRectangle width="180" height="30" as="alternateBounds"/>
                    </mxGeometry>
                </mxCell>
                <mxCell id="XXJnfLqn3RMoecripVSo-258" style="shape=partialRectangle;html=1;whiteSpace=wrap;connectable=0;overflow=hidden;fillColor=none;top=0;left=0;bottom=0;right=0;pointerEvents=1;strokeColor=#FFD966;" parent="XXJnfLqn3RMoecripVSo-255" vertex="1">
                    <mxGeometry x="250" width="60" height="30" as="geometry">
                        <mxRectangle width="50" height="30" as="alternateBounds"/>
                    </mxGeometry>
                </mxCell>
                <mxCell id="XXJnfLqn3RMoecripVSo-259" style="shape=partialRectangle;html=1;whiteSpace=wrap;connectable=0;overflow=hidden;fillColor=none;top=0;left=0;bottom=0;right=0;pointerEvents=1;strokeColor=#FFD966;" parent="XXJnfLqn3RMoecripVSo-255" vertex="1">
                    <mxGeometry x="310" width="40" height="30" as="geometry">
                        <mxRectangle width="30" height="30" as="alternateBounds"/>
                    </mxGeometry>
                </mxCell>
                <mxCell id="XXJnfLqn3RMoecripVSo-260" style="shape=partialRectangle;html=1;whiteSpace=wrap;connectable=0;overflow=hidden;fillColor=none;top=0;left=0;bottom=0;right=0;pointerEvents=1;strokeColor=#FFD966;" parent="XXJnfLqn3RMoecripVSo-255" vertex="1">
                    <mxGeometry x="350" width="90" height="30" as="geometry">
                        <mxRectangle width="60" height="30" as="alternateBounds"/>
                    </mxGeometry>
                </mxCell>
                <mxCell id="XXJnfLqn3RMoecripVSo-261" style="shape=partialRectangle;collapsible=0;dropTarget=0;pointerEvents=0;fillColor=none;top=0;left=0;bottom=0;right=0;points=[[0,0.5],[1,0.5]];portConstraint=eastwest;strokeColor=#FFD966;" parent="XXJnfLqn3RMoecripVSo-140" vertex="1">
                    <mxGeometry y="630" width="440" height="30" as="geometry"/>
                </mxCell>
                <mxCell id="XXJnfLqn3RMoecripVSo-262" value="21" style="shape=partialRectangle;html=1;whiteSpace=wrap;connectable=0;overflow=hidden;fillColor=none;top=0;left=0;bottom=0;right=0;pointerEvents=1;strokeColor=#FFD966;align=center;" parent="XXJnfLqn3RMoecripVSo-261" vertex="1">
                    <mxGeometry width="38" height="30" as="geometry">
                        <mxRectangle width="30" height="30" as="alternateBounds"/>
                    </mxGeometry>
                </mxCell>
                <mxCell id="XXJnfLqn3RMoecripVSo-263" value="creator_address" style="shape=partialRectangle;html=1;whiteSpace=wrap;connectable=0;overflow=hidden;fillColor=none;top=0;left=0;bottom=0;right=0;pointerEvents=1;strokeColor=#FFD966;align=left;" parent="XXJnfLqn3RMoecripVSo-261" vertex="1">
                    <mxGeometry x="38" width="212" height="30" as="geometry">
                        <mxRectangle width="180" height="30" as="alternateBounds"/>
                    </mxGeometry>
                </mxCell>
                <mxCell id="XXJnfLqn3RMoecripVSo-264" style="shape=partialRectangle;html=1;whiteSpace=wrap;connectable=0;overflow=hidden;fillColor=none;top=0;left=0;bottom=0;right=0;pointerEvents=1;strokeColor=#FFD966;" parent="XXJnfLqn3RMoecripVSo-261" vertex="1">
                    <mxGeometry x="250" width="60" height="30" as="geometry">
                        <mxRectangle width="50" height="30" as="alternateBounds"/>
                    </mxGeometry>
                </mxCell>
                <mxCell id="XXJnfLqn3RMoecripVSo-265" style="shape=partialRectangle;html=1;whiteSpace=wrap;connectable=0;overflow=hidden;fillColor=none;top=0;left=0;bottom=0;right=0;pointerEvents=1;strokeColor=#FFD966;" parent="XXJnfLqn3RMoecripVSo-261" vertex="1">
                    <mxGeometry x="310" width="40" height="30" as="geometry">
                        <mxRectangle width="30" height="30" as="alternateBounds"/>
                    </mxGeometry>
                </mxCell>
                <mxCell id="XXJnfLqn3RMoecripVSo-266" style="shape=partialRectangle;html=1;whiteSpace=wrap;connectable=0;overflow=hidden;fillColor=none;top=0;left=0;bottom=0;right=0;pointerEvents=1;strokeColor=#FFD966;" parent="XXJnfLqn3RMoecripVSo-261" vertex="1">
                    <mxGeometry x="350" width="90" height="30" as="geometry">
                        <mxRectangle width="60" height="30" as="alternateBounds"/>
                    </mxGeometry>
                </mxCell>
                <mxCell id="XXJnfLqn3RMoecripVSo-267" style="shape=partialRectangle;collapsible=0;dropTarget=0;pointerEvents=0;fillColor=none;top=0;left=0;bottom=0;right=0;points=[[0,0.5],[1,0.5]];portConstraint=eastwest;strokeColor=#FFD966;" parent="XXJnfLqn3RMoecripVSo-140" vertex="1">
                    <mxGeometry y="660" width="440" height="30" as="geometry"/>
                </mxCell>
                <mxCell id="XXJnfLqn3RMoecripVSo-268" value="22" style="shape=partialRectangle;html=1;whiteSpace=wrap;connectable=0;overflow=hidden;fillColor=none;top=0;left=0;bottom=0;right=0;pointerEvents=1;strokeColor=#FFD966;align=center;" parent="XXJnfLqn3RMoecripVSo-267" vertex="1">
                    <mxGeometry width="38" height="30" as="geometry">
                        <mxRectangle width="30" height="30" as="alternateBounds"/>
                    </mxGeometry>
                </mxCell>
                <mxCell id="XXJnfLqn3RMoecripVSo-269" value="previous_owner[]" style="shape=partialRectangle;html=1;whiteSpace=wrap;connectable=0;overflow=hidden;fillColor=none;top=0;left=0;bottom=0;right=0;pointerEvents=1;strokeColor=#FFD966;align=left;" parent="XXJnfLqn3RMoecripVSo-267" vertex="1">
                    <mxGeometry x="38" width="212" height="30" as="geometry">
                        <mxRectangle width="180" height="30" as="alternateBounds"/>
                    </mxGeometry>
                </mxCell>
                <mxCell id="XXJnfLqn3RMoecripVSo-270" style="shape=partialRectangle;html=1;whiteSpace=wrap;connectable=0;overflow=hidden;fillColor=none;top=0;left=0;bottom=0;right=0;pointerEvents=1;strokeColor=#FFD966;" parent="XXJnfLqn3RMoecripVSo-267" vertex="1">
                    <mxGeometry x="250" width="60" height="30" as="geometry">
                        <mxRectangle width="50" height="30" as="alternateBounds"/>
                    </mxGeometry>
                </mxCell>
                <mxCell id="XXJnfLqn3RMoecripVSo-271" style="shape=partialRectangle;html=1;whiteSpace=wrap;connectable=0;overflow=hidden;fillColor=none;top=0;left=0;bottom=0;right=0;pointerEvents=1;strokeColor=#FFD966;" parent="XXJnfLqn3RMoecripVSo-267" vertex="1">
                    <mxGeometry x="310" width="40" height="30" as="geometry">
                        <mxRectangle width="30" height="30" as="alternateBounds"/>
                    </mxGeometry>
                </mxCell>
                <mxCell id="XXJnfLqn3RMoecripVSo-272" style="shape=partialRectangle;html=1;whiteSpace=wrap;connectable=0;overflow=hidden;fillColor=none;top=0;left=0;bottom=0;right=0;pointerEvents=1;strokeColor=#FFD966;" parent="XXJnfLqn3RMoecripVSo-267" vertex="1">
                    <mxGeometry x="350" width="90" height="30" as="geometry">
                        <mxRectangle width="60" height="30" as="alternateBounds"/>
                    </mxGeometry>
                </mxCell>
                <mxCell id="XXJnfLqn3RMoecripVSo-273" style="shape=partialRectangle;collapsible=0;dropTarget=0;pointerEvents=0;fillColor=none;top=0;left=0;bottom=0;right=0;points=[[0,0.5],[1,0.5]];portConstraint=eastwest;strokeColor=#FFD966;" parent="XXJnfLqn3RMoecripVSo-140" vertex="1">
                    <mxGeometry y="690" width="440" height="30" as="geometry"/>
                </mxCell>
                <mxCell id="XXJnfLqn3RMoecripVSo-274" value="23" style="shape=partialRectangle;html=1;whiteSpace=wrap;connectable=0;overflow=hidden;fillColor=none;top=0;left=0;bottom=0;right=0;pointerEvents=1;strokeColor=#FFD966;align=center;" parent="XXJnfLqn3RMoecripVSo-273" vertex="1">
                    <mxGeometry width="38" height="30" as="geometry">
                        <mxRectangle width="30" height="30" as="alternateBounds"/>
                    </mxGeometry>
                </mxCell>
                <mxCell id="XXJnfLqn3RMoecripVSo-275" value="previous_owner[].address" style="shape=partialRectangle;html=1;whiteSpace=wrap;connectable=0;overflow=hidden;fillColor=none;top=0;left=0;bottom=0;right=0;pointerEvents=1;strokeColor=#FFD966;align=left;" parent="XXJnfLqn3RMoecripVSo-273" vertex="1">
                    <mxGeometry x="38" width="212" height="30" as="geometry">
                        <mxRectangle width="180" height="30" as="alternateBounds"/>
                    </mxGeometry>
                </mxCell>
                <mxCell id="XXJnfLqn3RMoecripVSo-276" style="shape=partialRectangle;html=1;whiteSpace=wrap;connectable=0;overflow=hidden;fillColor=none;top=0;left=0;bottom=0;right=0;pointerEvents=1;strokeColor=#FFD966;" parent="XXJnfLqn3RMoecripVSo-273" vertex="1">
                    <mxGeometry x="250" width="60" height="30" as="geometry">
                        <mxRectangle width="50" height="30" as="alternateBounds"/>
                    </mxGeometry>
                </mxCell>
                <mxCell id="XXJnfLqn3RMoecripVSo-277" style="shape=partialRectangle;html=1;whiteSpace=wrap;connectable=0;overflow=hidden;fillColor=none;top=0;left=0;bottom=0;right=0;pointerEvents=1;strokeColor=#FFD966;" parent="XXJnfLqn3RMoecripVSo-273" vertex="1">
                    <mxGeometry x="310" width="40" height="30" as="geometry">
                        <mxRectangle width="30" height="30" as="alternateBounds"/>
                    </mxGeometry>
                </mxCell>
                <mxCell id="XXJnfLqn3RMoecripVSo-278" style="shape=partialRectangle;html=1;whiteSpace=wrap;connectable=0;overflow=hidden;fillColor=none;top=0;left=0;bottom=0;right=0;pointerEvents=1;strokeColor=#FFD966;" parent="XXJnfLqn3RMoecripVSo-273" vertex="1">
                    <mxGeometry x="350" width="90" height="30" as="geometry">
                        <mxRectangle width="60" height="30" as="alternateBounds"/>
                    </mxGeometry>
                </mxCell>
                <mxCell id="XXJnfLqn3RMoecripVSo-325" value="profile" style="text;html=1;strokeColor=none;fillColor=none;align=left;verticalAlign=middle;whiteSpace=wrap;rounded=0;fontColor=#FFFFFF;fontSize=23;" parent="1" vertex="1">
                    <mxGeometry x="-600" y="40" width="75" height="40" as="geometry"/>
                </mxCell>
                <mxCell id="XXJnfLqn3RMoecripVSo-326" value="item" style="text;html=1;strokeColor=none;fillColor=none;align=left;verticalAlign=middle;whiteSpace=wrap;rounded=0;fontColor=#FFFFFF;fontSize=23;" parent="1" vertex="1">
                    <mxGeometry x="160" y="40" width="80" height="40" as="geometry"/>
                </mxCell>
            </root>
        </mxGraphModel>
    </diagram>
    <diagram id="ELtdjnQQFHs9kmsGgX-v" name="Page-2">
        <mxGraphModel dx="1818" dy="831" grid="1" gridSize="10" guides="1" tooltips="1" connect="1" arrows="1" fold="1" page="1" pageScale="1" pageWidth="850" pageHeight="1100" math="0" shadow="0">
            <root>
                <mxCell id="IIdRa2iJ-L01T_zC8eDw-0"/>
                <mxCell id="IIdRa2iJ-L01T_zC8eDw-1" parent="IIdRa2iJ-L01T_zC8eDw-0"/>
                <UserObject label="/item/[id]" lucidchartObjectId="5HXwM5F.xAPl" id="IIdRa2iJ-L01T_zC8eDw-2">
                    <mxCell style="html=1;overflow=block;blockSpacing=1;whiteSpace=wrap;;whiteSpace=wrap;fontSize=13;fontColor=#000000;spacing=3.8;strokeOpacity=0;fillOpacity=0;fillColor=#ffffff;strokeWidth=1.5;" parent="IIdRa2iJ-L01T_zC8eDw-1" vertex="1">
                        <mxGeometry x="-120" y="30" width="180" height="45" as="geometry"/>
                    </mxCell>
                </UserObject>
                <UserObject label="" lucidchartObjectId="nOXw_7u8jrRX" id="IIdRa2iJ-L01T_zC8eDw-3">
                    <mxCell style="html=1;overflow=block;blockSpacing=1;whiteSpace=wrap;shape=image;whiteSpace=wrap;fontSize=13;spacing=0;strokeColor=none;strokeOpacity=100;strokeWidth=0;image=https://images.lucid.app/images/665f49be-f747-4682-8ed5-7b5cdd6d24d8/content;imageAspect=0;" parent="IIdRa2iJ-L01T_zC8eDw-1" vertex="1">
                        <mxGeometry x="-15" y="105" width="670" height="615" as="geometry"/>
                    </mxCell>
                </UserObject>
                <UserObject label="" lucidchartObjectId="NOXwQz~I~KuW" id="IIdRa2iJ-L01T_zC8eDw-4">
                    <mxCell style="html=1;overflow=block;blockSpacing=1;whiteSpace=wrap;ellipse;whiteSpace=wrap;fontSize=13;spacing=3.8;strokeColor=#0c7cba;strokeOpacity=100;fillOpacity=0;fillColor=#000000;strokeWidth=1.5;fontColor=#FFFFFF;" parent="IIdRa2iJ-L01T_zC8eDw-1" vertex="1">
                        <mxGeometry x="454" y="315" width="45" height="30" as="geometry"/>
                    </mxCell>
                </UserObject>
                <UserObject label="" lucidchartObjectId="0OXwS5NyuUyS" id="IIdRa2iJ-L01T_zC8eDw-5">
                    <mxCell style="html=1;jettySize=18;whiteSpace=wrap;fontSize=13;strokeColor=#0c7cba;strokeOpacity=100;strokeWidth=1.5;rounded=1;arcSize=0;edgeStyle=orthogonalEdgeStyle;curved=1;startArrow=none;;endArrow=block;endFill=1;;exitX=0.791;exitY=0.069;exitPerimeter=0;entryX=-0.004;entryY=0.5;entryPerimeter=0;fontColor=#FFFFFF;" parent="IIdRa2iJ-L01T_zC8eDw-1" source="IIdRa2iJ-L01T_zC8eDw-4" target="IIdRa2iJ-L01T_zC8eDw-6" edge="1">
                        <mxGeometry width="100" height="100" relative="1" as="geometry">
                            <Array as="points"/>
                        </mxGeometry>
                    </mxCell>
                </UserObject>
                <UserObject label="item.owner_address" lucidchartObjectId="1OXw.RTmPfOS" id="IIdRa2iJ-L01T_zC8eDw-6">
                    <mxCell style="html=1;overflow=block;blockSpacing=1;whiteSpace=wrap;;whiteSpace=wrap;fontSize=13;spacing=3.8;strokeColor=#0c7cba;strokeOpacity=100;strokeWidth=1.5;fontColor=#FFFFFF;" parent="IIdRa2iJ-L01T_zC8eDw-1" vertex="1">
                        <mxGeometry x="765" y="165" width="180" height="45" as="geometry"/>
                    </mxCell>
                </UserObject>
                <UserObject label="" lucidchartObjectId=".WXwY~cDo_1G" id="IIdRa2iJ-L01T_zC8eDw-7">
                    <mxCell style="html=1;overflow=block;blockSpacing=1;whiteSpace=wrap;ellipse;whiteSpace=wrap;fontSize=13;spacing=3.8;strokeColor=#0c7cba;strokeOpacity=100;fillOpacity=0;fillColor=#000000;strokeWidth=1.5;fontColor=#FFFFFF;" parent="IIdRa2iJ-L01T_zC8eDw-1" vertex="1">
                        <mxGeometry x="499" y="315" width="45" height="30" as="geometry"/>
                    </mxCell>
                </UserObject>
                <UserObject label="" lucidchartObjectId=".WXwOYcBSXex" id="IIdRa2iJ-L01T_zC8eDw-8">
                    <mxCell style="html=1;jettySize=18;whiteSpace=wrap;fontSize=13;strokeColor=#0c7cba;strokeOpacity=100;strokeWidth=1.5;rounded=1;arcSize=0;edgeStyle=orthogonalEdgeStyle;curved=1;startArrow=none;;endArrow=block;endFill=1;;exitX=0.791;exitY=0.069;exitPerimeter=0;entryX=-0.004;entryY=0.5;entryPerimeter=0;fontColor=#FFFFFF;" parent="IIdRa2iJ-L01T_zC8eDw-1" source="IIdRa2iJ-L01T_zC8eDw-7" target="IIdRa2iJ-L01T_zC8eDw-9" edge="1">
                        <mxGeometry width="100" height="100" relative="1" as="geometry">
                            <Array as="points"/>
                        </mxGeometry>
                    </mxCell>
                </UserObject>
                <UserObject label="item.previous_owner" lucidchartObjectId=".WXwL.~7fzzH" id="IIdRa2iJ-L01T_zC8eDw-9">
                    <mxCell style="html=1;overflow=block;blockSpacing=1;whiteSpace=wrap;;whiteSpace=wrap;fontSize=13;spacing=3.8;strokeColor=#0c7cba;strokeOpacity=100;strokeWidth=1.5;fontColor=#FFFFFF;" parent="IIdRa2iJ-L01T_zC8eDw-1" vertex="1">
                        <mxGeometry x="855" y="285" width="180" height="45" as="geometry"/>
                    </mxCell>
                </UserObject>
                <UserObject label="Add previous owner to item after success purchase" lucidchartObjectId="EZXwM0eHqrYO" id="IIdRa2iJ-L01T_zC8eDw-10">
                    <mxCell style="html=1;overflow=block;blockSpacing=1;whiteSpace=wrap;shadow=1;whiteSpace=wrap;fontSize=13;spacing=3.8;strokeColor=none;fillColor=#FFECA9;strokeWidth=0;fontColor=#030303;" parent="IIdRa2iJ-L01T_zC8eDw-1" vertex="1">
                        <mxGeometry x="1050" y="390" width="120" height="120" as="geometry"/>
                    </mxCell>
                </UserObject>
                <UserObject label="" lucidchartObjectId="f2XwkQOd_u.c" id="IIdRa2iJ-L01T_zC8eDw-11">
                    <mxCell style="html=1;jettySize=18;whiteSpace=wrap;fontSize=13;strokeColor=#0c7cba;strokeOpacity=100;strokeWidth=1.5;rounded=1;arcSize=0;edgeStyle=orthogonalEdgeStyle;curved=1;startArrow=none;;endArrow=block;endFill=1;;exitX=0.5;exitY=1.025;exitPerimeter=0;entryX=-0.004;entryY=0.5;entryPerimeter=0;fontColor=#FFFFFF;" parent="IIdRa2iJ-L01T_zC8eDw-1" source="IIdRa2iJ-L01T_zC8eDw-12" target="IIdRa2iJ-L01T_zC8eDw-13" edge="1">
                        <mxGeometry width="100" height="100" relative="1" as="geometry">
                            <Array as="points"/>
                        </mxGeometry>
                    </mxCell>
                </UserObject>
                <UserObject label="" lucidchartObjectId="f2XwTjrWqpyB" id="IIdRa2iJ-L01T_zC8eDw-12">
                    <mxCell style="html=1;overflow=block;blockSpacing=1;whiteSpace=wrap;ellipse;whiteSpace=wrap;fontSize=13;spacing=3.8;strokeColor=#0c7cba;strokeOpacity=100;fillOpacity=0;fillColor=#000000;strokeWidth=1.5;fontColor=#FFFFFF;" parent="IIdRa2iJ-L01T_zC8eDw-1" vertex="1">
                        <mxGeometry x="420" y="315" width="45" height="30" as="geometry"/>
                    </mxCell>
                </UserObject>
                <UserObject label="item.owner_address&#10;item.item_creator" lucidchartObjectId="f2XwB0DCthgr" id="IIdRa2iJ-L01T_zC8eDw-13">
                    <mxCell style="html=1;overflow=block;blockSpacing=1;whiteSpace=wrap;;whiteSpace=wrap;fontSize=13;spacing=3.8;strokeColor=#0c7cba;strokeOpacity=100;strokeWidth=1.5;fontColor=#FFFFFF;" parent="IIdRa2iJ-L01T_zC8eDw-1" vertex="1">
                        <mxGeometry x="720" y="420" width="180" height="45" as="geometry"/>
                    </mxCell>
                </UserObject>
                <UserObject label="" lucidchartObjectId="A3XwIuOf~wgV" id="IIdRa2iJ-L01T_zC8eDw-14">
                    <mxCell style="html=1;overflow=block;blockSpacing=1;whiteSpace=wrap;ellipse;whiteSpace=wrap;fontSize=13;spacing=3.8;strokeColor=#fcc438;strokeOpacity=100;fillOpacity=0;fillColor=#000000;strokeWidth=1.5;" parent="IIdRa2iJ-L01T_zC8eDw-1" vertex="1">
                        <mxGeometry x="375" y="465" width="300" height="195" as="geometry"/>
                    </mxCell>
                </UserObject>
                <UserObject label="" lucidchartObjectId="P3XwP4T.hIg1" id="IIdRa2iJ-L01T_zC8eDw-15">
                    <mxCell style="html=1;jettySize=18;whiteSpace=wrap;fontSize=13;strokeColor=#fcc438;strokeOpacity=100;strokeWidth=1.5;rounded=1;arcSize=0;edgeStyle=orthogonalEdgeStyle;curved=1;startArrow=none;;endArrow=block;endFill=1;;exitX=1.003;exitY=0.5;exitPerimeter=0;entryX=-0.003;entryY=0.5;entryPerimeter=0;fontColor=#FFFFFF;" parent="IIdRa2iJ-L01T_zC8eDw-1" source="IIdRa2iJ-L01T_zC8eDw-14" target="IIdRa2iJ-L01T_zC8eDw-16" edge="1">
                        <mxGeometry width="100" height="100" relative="1" as="geometry">
                            <Array as="points"/>
                        </mxGeometry>
                    </mxCell>
                </UserObject>
                <UserObject label="&lt;div style=&quot;display: flex; justify-content: center; text-align: center; align-items: baseline; font-size: 0; line-height: 1.25;margin-top: -2px;&quot;&gt;&lt;span&gt;&lt;span style=&quot;font-size: 13px; font-weight: bold;&quot;&gt;Logic:&lt;/span&gt;&lt;span style=&quot;font-size: 13px;&quot;&gt; display '&lt;/span&gt;&lt;span style=&quot;font-size: 13px; font-weight: bold;&quot;&gt;purchase now&lt;/span&gt;&lt;span style=&quot;font-size: 13px;&quot;&gt;' if connected wallet !== item.owner_address&lt;/span&gt;&lt;/span&gt;&lt;/div&gt;" lucidchartObjectId="Q3Xw7v4y2_Ik" id="IIdRa2iJ-L01T_zC8eDw-16">
                    <mxCell style="html=1;overflow=block;blockSpacing=1;whiteSpace=wrap;;whiteSpace=wrap;fontSize=13;spacing=3.8;strokeColor=#fcc438;strokeOpacity=100;strokeWidth=1.5;fontColor=#FFFFFF;" parent="IIdRa2iJ-L01T_zC8eDw-1" vertex="1">
                        <mxGeometry x="795" y="553" width="240" height="92" as="geometry"/>
                    </mxCell>
                </UserObject>
                <UserObject label="&lt;div style=&quot;display: flex; justify-content: center; text-align: center; align-items: baseline; font-size: 0; line-height: 1.25;margin-top: -2px;&quot;&gt;&lt;span&gt;&lt;span style=&quot;font-size: 13px; font-weight: bold;&quot;&gt;Logic:&lt;/span&gt;&lt;span style=&quot;font-size: 13px;&quot;&gt; display '&lt;/span&gt;&lt;span style=&quot;font-size: 13px; font-weight: bold;&quot;&gt;put on sale&lt;/span&gt;&lt;span style=&quot;font-size: 13px;&quot;&gt;' if connected wallet === item.owner_address&lt;/span&gt;&lt;/span&gt;&lt;/div&gt;" lucidchartObjectId="35XwAeOnWn4P" id="IIdRa2iJ-L01T_zC8eDw-17">
                    <mxCell style="html=1;overflow=block;blockSpacing=1;whiteSpace=wrap;;whiteSpace=wrap;fontSize=13;spacing=3.8;strokeColor=#fcc438;strokeOpacity=100;strokeWidth=1.5;fontColor=#FFFFFF;" parent="IIdRa2iJ-L01T_zC8eDw-1" vertex="1">
                        <mxGeometry x="480" y="765" width="240" height="92" as="geometry"/>
                    </mxCell>
                </UserObject>
                <UserObject label="" lucidchartObjectId="65XwaDl99tG9" id="IIdRa2iJ-L01T_zC8eDw-18">
                    <mxCell style="html=1;jettySize=18;whiteSpace=wrap;fontSize=13;strokeColor=#fcc438;strokeOpacity=100;strokeWidth=1.5;rounded=1;arcSize=0;edgeStyle=orthogonalEdgeStyle;curved=1;startArrow=none;;endArrow=block;endFill=1;;exitX=0.885;exitY=0.824;exitPerimeter=0;entryX=0.5;entryY=-0.008;entryPerimeter=0;fontColor=#FFFFFF;" parent="IIdRa2iJ-L01T_zC8eDw-1" source="IIdRa2iJ-L01T_zC8eDw-14" target="IIdRa2iJ-L01T_zC8eDw-17" edge="1">
                        <mxGeometry width="100" height="100" relative="1" as="geometry">
                            <Array as="points"/>
                        </mxGeometry>
                    </mxCell>
                </UserObject>
                <UserObject label="" lucidchartObjectId="MaZw7qZeL8gp" id="IIdRa2iJ-L01T_zC8eDw-19">
                    <mxCell style="html=1;jettySize=18;whiteSpace=wrap;fontSize=13;strokeOpacity=100;strokeWidth=1.5;rounded=1;arcSize=0;edgeStyle=orthogonalEdgeStyle;curved=1;startArrow=none;;endArrow=block;endFill=1;;exitX=0.5;exitY=1.008;exitPerimeter=0;entryX=0.5;entryY=-0.008;entryPerimeter=0;fontColor=#FFFFFF;" parent="IIdRa2iJ-L01T_zC8eDw-1" source="IIdRa2iJ-L01T_zC8eDw-17" target="IIdRa2iJ-L01T_zC8eDw-20" edge="1">
                        <mxGeometry width="100" height="100" relative="1" as="geometry">
                            <Array as="points"/>
                        </mxGeometry>
                    </mxCell>
                </UserObject>
                <UserObject label="&lt;div style=&quot;display: flex; justify-content: flex-start; text-align: left; align-items: baseline; font-size: 0; line-height: 1.25;margin-top: -2px;&quot;&gt;&lt;span&gt;&lt;span style=&quot;font-size: 13px; font-weight: bold;&quot;&gt;putOnSale()&lt;/span&gt;&lt;span style=&quot;font-size: 13px;&quot;&gt;&#10;&lt;/span&gt;&lt;/span&gt;&lt;/div&gt;&lt;ol style=&quot;margin: 0px; padding-left: 10px;list-style-position: inside; list-style-type:decimal&quot;&gt;&lt;li style=&quot;text-align: left;&quot;&gt;&lt;span style=&quot;margin-left: 0px;margin-top: -2px;&quot;&gt;&lt;span style=&quot;font-size: 13px;&quot;&gt;&lt;span style=&quot;font-size: 13px;&quot;&gt;increase 'item.num_sales'&lt;/span&gt;&lt;/span&gt;&lt;/span&gt;&lt;/li&gt;&lt;li style=&quot;text-align: left;&quot;&gt;&lt;span style=&quot;margin-left: 0px;margin-top: -2px;&quot;&gt;&lt;span style=&quot;font-size: 13px;&quot;&gt;set 'is_sold' === false&lt;/span&gt;&lt;/span&gt;&lt;/li&gt;&lt;li style=&quot;text-align: left;&quot;&gt;&lt;span style=&quot;margin-left: 0px;margin-top: -2px;&quot;&gt;&lt;span style=&quot;font-size: 13px;&quot;&gt;set 'last_sale' === current datetime&lt;/span&gt;&lt;/span&gt;&lt;/li&gt;&lt;li style=&quot;text-align: left;&quot;&gt;&lt;span style=&quot;margin-left: 0px;margin-top: -2px;&quot;&gt;&lt;span style=&quot;font-size: 13px;&quot;&gt;call marketSell function&lt;/span&gt;&lt;/span&gt;&lt;/li&gt;&lt;/ol&gt;" lucidchartObjectId="NaZwLPgrd-Gj" id="IIdRa2iJ-L01T_zC8eDw-20">
                    <mxCell style="html=1;overflow=block;blockSpacing=1;whiteSpace=wrap;;whiteSpace=wrap;fontSize=13;spacing=3.8;strokeOpacity=100;strokeWidth=1.5;fontColor=#FFFFFF;" parent="IIdRa2iJ-L01T_zC8eDw-1" vertex="1">
                        <mxGeometry x="465" y="915" width="270" height="115" as="geometry"/>
                    </mxCell>
                </UserObject>
            </root>
        </mxGraphModel>
    </diagram>
</mxfile>